ISO-10303-21;
HEADER;
/* Generated by software containing ST-Developer
 * from STEP Tools, Inc. (www.steptools.com) 
 */

FILE_DESCRIPTION(
/* description */ (''),
/* implementation_level */ '2;1');

FILE_NAME(
/* name */ 'Box.step',
/* time_stamp */ '2026-03-26T14:29:53-07:00',
/* author */ (''),
/* organization */ (''),
/* preprocessor_version */ 'ST-DEVELOPER v20.1',
/* originating_system */ 'Autodesk Translation Framework v14.24.0.0',
/* authorisation */ '');

FILE_SCHEMA (('AUTOMOTIVE_DESIGN { 1 0 10303 214 3 1 1 }'));
ENDSEC;

DATA;
#10=MECHANICAL_DESIGN_GEOMETRIC_PRESENTATION_REPRESENTATION('',(#13),#1653);
#11=SHAPE_REPRESENTATION_RELATIONSHIP('SRR','None',#1660,#12);
#12=ADVANCED_BREP_SHAPE_REPRESENTATION('',(#14),#1652);
#13=STYLED_ITEM('',(#1670),#14);
#14=MANIFOLD_SOLID_BREP('Body1',#1005);
#15=CYLINDRICAL_SURFACE('',#1024,1.6);
#16=CYLINDRICAL_SURFACE('',#1028,1.6);
#17=CYLINDRICAL_SURFACE('',#1035,1.6);
#18=CYLINDRICAL_SURFACE('',#1039,1.6);
#19=CYLINDRICAL_SURFACE('',#1056,3.5);
#20=CYLINDRICAL_SURFACE('',#1060,3.5);
#21=CYLINDRICAL_SURFACE('',#1064,3.5);
#22=CYLINDRICAL_SURFACE('',#1068,3.5);
#23=CYLINDRICAL_SURFACE('',#1081,2.5);
#24=CYLINDRICAL_SURFACE('',#1085,2.5);
#25=CYLINDRICAL_SURFACE('',#1089,2.5);
#26=CYLINDRICAL_SURFACE('',#1093,2.5);
#27=FACE_BOUND('',#143,.T.);
#28=FACE_BOUND('',#144,.T.);
#29=FACE_BOUND('',#150,.T.);
#30=FACE_BOUND('',#151,.T.);
#31=FACE_BOUND('',#152,.T.);
#32=FACE_BOUND('',#153,.T.);
#33=FACE_BOUND('',#182,.T.);
#34=FACE_BOUND('',#187,.T.);
#35=FACE_BOUND('',#189,.T.);
#36=FACE_BOUND('',#190,.T.);
#37=FACE_BOUND('',#191,.T.);
#38=FACE_BOUND('',#192,.T.);
#39=FACE_BOUND('',#194,.T.);
#40=FACE_BOUND('',#196,.T.);
#41=FACE_BOUND('',#197,.T.);
#42=FACE_BOUND('',#207,.T.);
#43=FACE_BOUND('',#208,.T.);
#44=FACE_BOUND('',#210,.T.);
#45=FACE_BOUND('',#212,.T.);
#46=FACE_BOUND('',#213,.T.);
#47=FACE_BOUND('',#214,.T.);
#48=FACE_BOUND('',#215,.T.);
#49=PLANE('',#1022);
#50=PLANE('',#1033);
#51=PLANE('',#1041);
#52=PLANE('',#1042);
#53=PLANE('',#1043);
#54=PLANE('',#1044);
#55=PLANE('',#1045);
#56=PLANE('',#1046);
#57=PLANE('',#1047);
#58=PLANE('',#1048);
#59=PLANE('',#1049);
#60=PLANE('',#1050);
#61=PLANE('',#1051);
#62=PLANE('',#1052);
#63=PLANE('',#1053);
#64=PLANE('',#1054);
#65=PLANE('',#1055);
#66=PLANE('',#1059);
#67=PLANE('',#1063);
#68=PLANE('',#1067);
#69=PLANE('',#1071);
#70=PLANE('',#1072);
#71=PLANE('',#1073);
#72=PLANE('',#1074);
#73=PLANE('',#1075);
#74=PLANE('',#1076);
#75=PLANE('',#1077);
#76=PLANE('',#1078);
#77=PLANE('',#1079);
#78=PLANE('',#1080);
#79=PLANE('',#1084);
#80=PLANE('',#1088);
#81=PLANE('',#1092);
#82=PLANE('',#1096);
#83=PLANE('',#1097);
#84=PLANE('',#1098);
#85=PLANE('',#1099);
#86=PLANE('',#1100);
#87=FACE_OUTER_BOUND('',#141,.T.);
#88=FACE_OUTER_BOUND('',#142,.T.);
#89=FACE_OUTER_BOUND('',#145,.T.);
#90=FACE_OUTER_BOUND('',#146,.T.);
#91=FACE_OUTER_BOUND('',#147,.T.);
#92=FACE_OUTER_BOUND('',#148,.T.);
#93=FACE_OUTER_BOUND('',#149,.T.);
#94=FACE_OUTER_BOUND('',#154,.T.);
#95=FACE_OUTER_BOUND('',#155,.T.);
#96=FACE_OUTER_BOUND('',#156,.T.);
#97=FACE_OUTER_BOUND('',#157,.T.);
#98=FACE_OUTER_BOUND('',#158,.T.);
#99=FACE_OUTER_BOUND('',#159,.T.);
#100=FACE_OUTER_BOUND('',#160,.T.);
#101=FACE_OUTER_BOUND('',#161,.T.);
#102=FACE_OUTER_BOUND('',#162,.T.);
#103=FACE_OUTER_BOUND('',#163,.T.);
#104=FACE_OUTER_BOUND('',#164,.T.);
#105=FACE_OUTER_BOUND('',#165,.T.);
#106=FACE_OUTER_BOUND('',#166,.T.);
#107=FACE_OUTER_BOUND('',#167,.T.);
#108=FACE_OUTER_BOUND('',#168,.T.);
#109=FACE_OUTER_BOUND('',#169,.T.);
#110=FACE_OUTER_BOUND('',#170,.T.);
#111=FACE_OUTER_BOUND('',#171,.T.);
#112=FACE_OUTER_BOUND('',#172,.T.);
#113=FACE_OUTER_BOUND('',#173,.T.);
#114=FACE_OUTER_BOUND('',#174,.T.);
#115=FACE_OUTER_BOUND('',#175,.T.);
#116=FACE_OUTER_BOUND('',#176,.T.);
#117=FACE_OUTER_BOUND('',#177,.T.);
#118=FACE_OUTER_BOUND('',#178,.T.);
#119=FACE_OUTER_BOUND('',#179,.T.);
#120=FACE_OUTER_BOUND('',#180,.T.);
#121=FACE_OUTER_BOUND('',#181,.T.);
#122=FACE_OUTER_BOUND('',#183,.T.);
#123=FACE_OUTER_BOUND('',#184,.T.);
#124=FACE_OUTER_BOUND('',#185,.T.);
#125=FACE_OUTER_BOUND('',#186,.T.);
#126=FACE_OUTER_BOUND('',#188,.T.);
#127=FACE_OUTER_BOUND('',#193,.T.);
#128=FACE_OUTER_BOUND('',#195,.T.);
#129=FACE_OUTER_BOUND('',#198,.T.);
#130=FACE_OUTER_BOUND('',#199,.T.);
#131=FACE_OUTER_BOUND('',#200,.T.);
#132=FACE_OUTER_BOUND('',#201,.T.);
#133=FACE_OUTER_BOUND('',#202,.T.);
#134=FACE_OUTER_BOUND('',#203,.T.);
#135=FACE_OUTER_BOUND('',#204,.T.);
#136=FACE_OUTER_BOUND('',#205,.T.);
#137=FACE_OUTER_BOUND('',#206,.T.);
#138=FACE_OUTER_BOUND('',#209,.T.);
#139=FACE_OUTER_BOUND('',#211,.T.);
#140=FACE_OUTER_BOUND('',#216,.T.);
#141=EDGE_LOOP('',(#679,#680,#681,#682));
#142=EDGE_LOOP('',(#683,#684,#685,#686));
#143=EDGE_LOOP('',(#687));
#144=EDGE_LOOP('',(#688));
#145=EDGE_LOOP('',(#689,#690,#691,#692));
#146=EDGE_LOOP('',(#693,#694,#695,#696));
#147=EDGE_LOOP('',(#697,#698,#699,#700));
#148=EDGE_LOOP('',(#701,#702,#703,#704));
#149=EDGE_LOOP('',(#705,#706,#707,#708));
#150=EDGE_LOOP('',(#709));
#151=EDGE_LOOP('',(#710,#711,#712,#713));
#152=EDGE_LOOP('',(#714,#715,#716,#717));
#153=EDGE_LOOP('',(#718));
#154=EDGE_LOOP('',(#719,#720,#721,#722));
#155=EDGE_LOOP('',(#723,#724,#725,#726));
#156=EDGE_LOOP('',(#727,#728,#729,#730));
#157=EDGE_LOOP('',(#731,#732,#733,#734));
#158=EDGE_LOOP('',(#735,#736,#737,#738));
#159=EDGE_LOOP('',(#739,#740,#741,#742));
#160=EDGE_LOOP('',(#743,#744,#745,#746));
#161=EDGE_LOOP('',(#747,#748,#749,#750));
#162=EDGE_LOOP('',(#751,#752,#753,#754));
#163=EDGE_LOOP('',(#755,#756,#757,#758));
#164=EDGE_LOOP('',(#759,#760,#761,#762));
#165=EDGE_LOOP('',(#763,#764,#765,#766));
#166=EDGE_LOOP('',(#767,#768,#769,#770));
#167=EDGE_LOOP('',(#771,#772,#773,#774));
#168=EDGE_LOOP('',(#775,#776,#777,#778));
#169=EDGE_LOOP('',(#779,#780,#781,#782));
#170=EDGE_LOOP('',(#783,#784,#785,#786));
#171=EDGE_LOOP('',(#787,#788,#789,#790));
#172=EDGE_LOOP('',(#791,#792,#793,#794));
#173=EDGE_LOOP('',(#795,#796,#797,#798));
#174=EDGE_LOOP('',(#799,#800,#801,#802));
#175=EDGE_LOOP('',(#803,#804,#805,#806));
#176=EDGE_LOOP('',(#807,#808,#809,#810));
#177=EDGE_LOOP('',(#811,#812,#813,#814));
#178=EDGE_LOOP('',(#815,#816,#817,#818));
#179=EDGE_LOOP('',(#819,#820,#821,#822));
#180=EDGE_LOOP('',(#823,#824,#825,#826,#827,#828,#829,#830));
#181=EDGE_LOOP('',(#831,#832,#833,#834));
#182=EDGE_LOOP('',(#835,#836,#837,#838));
#183=EDGE_LOOP('',(#839,#840,#841,#842,#843,#844));
#184=EDGE_LOOP('',(#845,#846,#847,#848,#849,#850));
#185=EDGE_LOOP('',(#851,#852,#853,#854));
#186=EDGE_LOOP('',(#855,#856,#857,#858));
#187=EDGE_LOOP('',(#859,#860,#861,#862));
#188=EDGE_LOOP('',(#863,#864,#865,#866));
#189=EDGE_LOOP('',(#867));
#190=EDGE_LOOP('',(#868));
#191=EDGE_LOOP('',(#869,#870,#871,#872));
#192=EDGE_LOOP('',(#873,#874,#875,#876));
#193=EDGE_LOOP('',(#877,#878,#879,#880));
#194=EDGE_LOOP('',(#881,#882,#883,#884));
#195=EDGE_LOOP('',(#885,#886,#887,#888));
#196=EDGE_LOOP('',(#889));
#197=EDGE_LOOP('',(#890));
#198=EDGE_LOOP('',(#891,#892,#893,#894));
#199=EDGE_LOOP('',(#895));
#200=EDGE_LOOP('',(#896,#897,#898,#899));
#201=EDGE_LOOP('',(#900));
#202=EDGE_LOOP('',(#901,#902,#903,#904));
#203=EDGE_LOOP('',(#905));
#204=EDGE_LOOP('',(#906,#907,#908,#909));
#205=EDGE_LOOP('',(#910));
#206=EDGE_LOOP('',(#911,#912,#913,#914));
#207=EDGE_LOOP('',(#915,#916,#917,#918));
#208=EDGE_LOOP('',(#919,#920,#921,#922,#923,#924,#925,#926));
#209=EDGE_LOOP('',(#927,#928,#929,#930));
#210=EDGE_LOOP('',(#931,#932,#933,#934));
#211=EDGE_LOOP('',(#935,#936,#937,#938));
#212=EDGE_LOOP('',(#939));
#213=EDGE_LOOP('',(#940));
#214=EDGE_LOOP('',(#941));
#215=EDGE_LOOP('',(#942));
#216=EDGE_LOOP('',(#943,#944,#945,#946));
#217=LINE('',#1378,#323);
#218=LINE('',#1383,#324);
#219=LINE('',#1385,#325);
#220=LINE('',#1387,#326);
#221=LINE('',#1388,#327);
#222=LINE('',#1393,#328);
#223=LINE('',#1397,#329);
#224=LINE('',#1401,#330);
#225=LINE('',#1407,#331);
#226=LINE('',#1412,#332);
#227=LINE('',#1414,#333);
#228=LINE('',#1416,#334);
#229=LINE('',#1417,#335);
#230=LINE('',#1422,#336);
#231=LINE('',#1424,#337);
#232=LINE('',#1426,#338);
#233=LINE('',#1427,#339);
#234=LINE('',#1430,#340);
#235=LINE('',#1432,#341);
#236=LINE('',#1434,#342);
#237=LINE('',#1435,#343);
#238=LINE('',#1438,#344);
#239=LINE('',#1442,#345);
#240=LINE('',#1446,#346);
#241=LINE('',#1450,#347);
#242=LINE('',#1452,#348);
#243=LINE('',#1453,#349);
#244=LINE('',#1456,#350);
#245=LINE('',#1457,#351);
#246=LINE('',#1460,#352);
#247=LINE('',#1461,#353);
#248=LINE('',#1463,#354);
#249=LINE('',#1467,#355);
#250=LINE('',#1469,#356);
#251=LINE('',#1471,#357);
#252=LINE('',#1472,#358);
#253=LINE('',#1475,#359);
#254=LINE('',#1477,#360);
#255=LINE('',#1478,#361);
#256=LINE('',#1481,#362);
#257=LINE('',#1483,#363);
#258=LINE('',#1484,#364);
#259=LINE('',#1487,#365);
#260=LINE('',#1489,#366);
#261=LINE('',#1490,#367);
#262=LINE('',#1493,#368);
#263=LINE('',#1494,#369);
#264=LINE('',#1497,#370);
#265=LINE('',#1498,#371);
#266=LINE('',#1500,#372);
#267=LINE('',#1504,#373);
#268=LINE('',#1506,#374);
#269=LINE('',#1508,#375);
#270=LINE('',#1509,#376);
#271=LINE('',#1512,#377);
#272=LINE('',#1514,#378);
#273=LINE('',#1515,#379);
#274=LINE('',#1518,#380);
#275=LINE('',#1520,#381);
#276=LINE('',#1521,#382);
#277=LINE('',#1523,#383);
#278=LINE('',#1524,#384);
#279=LINE('',#1530,#385);
#280=LINE('',#1533,#386);
#281=LINE('',#1536,#387);
#282=LINE('',#1538,#388);
#283=LINE('',#1539,#389);
#284=LINE('',#1545,#390);
#285=LINE('',#1548,#391);
#286=LINE('',#1550,#392);
#287=LINE('',#1551,#393);
#288=LINE('',#1557,#394);
#289=LINE('',#1560,#395);
#290=LINE('',#1562,#396);
#291=LINE('',#1563,#397);
#292=LINE('',#1569,#398);
#293=LINE('',#1571,#399);
#294=LINE('',#1572,#400);
#295=LINE('',#1575,#401);
#296=LINE('',#1576,#402);
#297=LINE('',#1579,#403);
#298=LINE('',#1581,#404);
#299=LINE('',#1583,#405);
#300=LINE('',#1584,#406);
#301=LINE('',#1587,#407);
#302=LINE('',#1589,#408);
#303=LINE('',#1590,#409);
#304=LINE('',#1593,#410);
#305=LINE('',#1595,#411);
#306=LINE('',#1596,#412);
#307=LINE('',#1598,#413);
#308=LINE('',#1599,#414);
#309=LINE('',#1603,#415);
#310=LINE('',#1604,#416);
#311=LINE('',#1605,#417);
#312=LINE('',#1608,#418);
#313=LINE('',#1609,#419);
#314=LINE('',#1612,#420);
#315=LINE('',#1613,#421);
#316=LINE('',#1615,#422);
#317=LINE('',#1620,#423);
#318=LINE('',#1627,#424);
#319=LINE('',#1634,#425);
#320=LINE('',#1641,#426);
#321=LINE('',#1645,#427);
#322=LINE('',#1647,#428);
#323=VECTOR('',#1107,2.09999999999999);
#324=VECTOR('',#1112,10.);
#325=VECTOR('',#1113,10.);
#326=VECTOR('',#1114,10.);
#327=VECTOR('',#1115,10.);
#328=VECTOR('',#1120,1.6);
#329=VECTOR('',#1125,2.1);
#330=VECTOR('',#1130,1.6);
#331=VECTOR('',#1137,2.09999999999999);
#332=VECTOR('',#1142,10.);
#333=VECTOR('',#1143,10.);
#334=VECTOR('',#1144,10.);
#335=VECTOR('',#1145,10.);
#336=VECTOR('',#1148,10.);
#337=VECTOR('',#1149,10.);
#338=VECTOR('',#1150,10.);
#339=VECTOR('',#1151,10.);
#340=VECTOR('',#1152,10.);
#341=VECTOR('',#1153,10.);
#342=VECTOR('',#1154,10.);
#343=VECTOR('',#1155,10.);
#344=VECTOR('',#1158,1.6);
#345=VECTOR('',#1163,2.1);
#346=VECTOR('',#1168,1.6);
#347=VECTOR('',#1173,10.);
#348=VECTOR('',#1174,10.);
#349=VECTOR('',#1175,10.);
#350=VECTOR('',#1178,10.);
#351=VECTOR('',#1179,10.);
#352=VECTOR('',#1182,10.);
#353=VECTOR('',#1183,10.);
#354=VECTOR('',#1186,10.);
#355=VECTOR('',#1189,10.);
#356=VECTOR('',#1190,10.);
#357=VECTOR('',#1191,10.);
#358=VECTOR('',#1192,10.);
#359=VECTOR('',#1195,10.);
#360=VECTOR('',#1196,10.);
#361=VECTOR('',#1197,10.);
#362=VECTOR('',#1200,10.);
#363=VECTOR('',#1201,10.);
#364=VECTOR('',#1202,10.);
#365=VECTOR('',#1205,10.);
#366=VECTOR('',#1206,10.);
#367=VECTOR('',#1207,10.);
#368=VECTOR('',#1210,10.);
#369=VECTOR('',#1211,10.);
#370=VECTOR('',#1214,10.);
#371=VECTOR('',#1215,10.);
#372=VECTOR('',#1218,10.);
#373=VECTOR('',#1221,10.);
#374=VECTOR('',#1222,10.);
#375=VECTOR('',#1223,10.);
#376=VECTOR('',#1224,10.);
#377=VECTOR('',#1227,10.);
#378=VECTOR('',#1228,10.);
#379=VECTOR('',#1229,10.);
#380=VECTOR('',#1232,10.);
#381=VECTOR('',#1233,10.);
#382=VECTOR('',#1234,10.);
#383=VECTOR('',#1237,10.);
#384=VECTOR('',#1238,10.);
#385=VECTOR('',#1243,10.);
#386=VECTOR('',#1246,10.);
#387=VECTOR('',#1249,10.);
#388=VECTOR('',#1250,10.);
#389=VECTOR('',#1251,10.);
#390=VECTOR('',#1256,10.);
#391=VECTOR('',#1259,10.);
#392=VECTOR('',#1262,10.);
#393=VECTOR('',#1263,10.);
#394=VECTOR('',#1268,10.);
#395=VECTOR('',#1271,10.);
#396=VECTOR('',#1274,10.);
#397=VECTOR('',#1275,10.);
#398=VECTOR('',#1282,10.);
#399=VECTOR('',#1285,10.);
#400=VECTOR('',#1286,10.);
#401=VECTOR('',#1291,10.);
#402=VECTOR('',#1292,10.);
#403=VECTOR('',#1293,10.);
#404=VECTOR('',#1294,10.);
#405=VECTOR('',#1295,10.);
#406=VECTOR('',#1296,10.);
#407=VECTOR('',#1299,10.);
#408=VECTOR('',#1300,10.);
#409=VECTOR('',#1301,10.);
#410=VECTOR('',#1304,10.);
#411=VECTOR('',#1305,10.);
#412=VECTOR('',#1306,10.);
#413=VECTOR('',#1309,10.);
#414=VECTOR('',#1310,10.);
#415=VECTOR('',#1313,10.);
#416=VECTOR('',#1314,10.);
#417=VECTOR('',#1315,10.);
#418=VECTOR('',#1318,10.);
#419=VECTOR('',#1319,10.);
#420=VECTOR('',#1322,10.);
#421=VECTOR('',#1323,10.);
#422=VECTOR('',#1326,10.);
#423=VECTOR('',#1331,2.5);
#424=VECTOR('',#1340,2.5);
#425=VECTOR('',#1349,2.5);
#426=VECTOR('',#1358,2.5);
#427=VECTOR('',#1365,10.);
#428=VECTOR('',#1368,10.);
#429=CIRCLE('',#1020,2.6);
#430=CIRCLE('',#1021,1.6);
#431=CIRCLE('',#1023,2.6);
#432=CIRCLE('',#1025,1.6);
#433=CIRCLE('',#1027,1.6);
#434=CIRCLE('',#1029,1.6);
#435=CIRCLE('',#1031,2.6);
#436=CIRCLE('',#1032,1.6);
#437=CIRCLE('',#1034,2.6);
#438=CIRCLE('',#1036,1.6);
#439=CIRCLE('',#1038,1.6);
#440=CIRCLE('',#1040,1.6);
#441=CIRCLE('',#1057,3.5);
#442=CIRCLE('',#1058,3.5);
#443=CIRCLE('',#1061,3.5);
#444=CIRCLE('',#1062,3.5);
#445=CIRCLE('',#1065,3.5);
#446=CIRCLE('',#1066,3.5);
#447=CIRCLE('',#1069,3.5);
#448=CIRCLE('',#1070,3.5);
#449=CIRCLE('',#1082,2.5);
#450=CIRCLE('',#1083,2.5);
#451=CIRCLE('',#1086,2.5);
#452=CIRCLE('',#1087,2.5);
#453=CIRCLE('',#1090,2.5);
#454=CIRCLE('',#1091,2.5);
#455=CIRCLE('',#1094,2.5);
#456=CIRCLE('',#1095,2.5);
#457=VERTEX_POINT('',#1375);
#458=VERTEX_POINT('',#1377);
#459=VERTEX_POINT('',#1381);
#460=VERTEX_POINT('',#1382);
#461=VERTEX_POINT('',#1384);
#462=VERTEX_POINT('',#1386);
#463=VERTEX_POINT('',#1389);
#464=VERTEX_POINT('',#1392);
#465=VERTEX_POINT('',#1396);
#466=VERTEX_POINT('',#1400);
#467=VERTEX_POINT('',#1404);
#468=VERTEX_POINT('',#1406);
#469=VERTEX_POINT('',#1410);
#470=VERTEX_POINT('',#1411);
#471=VERTEX_POINT('',#1413);
#472=VERTEX_POINT('',#1415);
#473=VERTEX_POINT('',#1418);
#474=VERTEX_POINT('',#1420);
#475=VERTEX_POINT('',#1421);
#476=VERTEX_POINT('',#1423);
#477=VERTEX_POINT('',#1425);
#478=VERTEX_POINT('',#1428);
#479=VERTEX_POINT('',#1429);
#480=VERTEX_POINT('',#1431);
#481=VERTEX_POINT('',#1433);
#482=VERTEX_POINT('',#1437);
#483=VERTEX_POINT('',#1441);
#484=VERTEX_POINT('',#1445);
#485=VERTEX_POINT('',#1449);
#486=VERTEX_POINT('',#1451);
#487=VERTEX_POINT('',#1455);
#488=VERTEX_POINT('',#1459);
#489=VERTEX_POINT('',#1465);
#490=VERTEX_POINT('',#1466);
#491=VERTEX_POINT('',#1468);
#492=VERTEX_POINT('',#1470);
#493=VERTEX_POINT('',#1474);
#494=VERTEX_POINT('',#1476);
#495=VERTEX_POINT('',#1480);
#496=VERTEX_POINT('',#1482);
#497=VERTEX_POINT('',#1486);
#498=VERTEX_POINT('',#1488);
#499=VERTEX_POINT('',#1492);
#500=VERTEX_POINT('',#1496);
#501=VERTEX_POINT('',#1502);
#502=VERTEX_POINT('',#1503);
#503=VERTEX_POINT('',#1505);
#504=VERTEX_POINT('',#1507);
#505=VERTEX_POINT('',#1511);
#506=VERTEX_POINT('',#1513);
#507=VERTEX_POINT('',#1517);
#508=VERTEX_POINT('',#1519);
#509=VERTEX_POINT('',#1526);
#510=VERTEX_POINT('',#1527);
#511=VERTEX_POINT('',#1529);
#512=VERTEX_POINT('',#1531);
#513=VERTEX_POINT('',#1535);
#514=VERTEX_POINT('',#1537);
#515=VERTEX_POINT('',#1541);
#516=VERTEX_POINT('',#1542);
#517=VERTEX_POINT('',#1544);
#518=VERTEX_POINT('',#1546);
#519=VERTEX_POINT('',#1553);
#520=VERTEX_POINT('',#1554);
#521=VERTEX_POINT('',#1556);
#522=VERTEX_POINT('',#1558);
#523=VERTEX_POINT('',#1565);
#524=VERTEX_POINT('',#1567);
#525=VERTEX_POINT('',#1577);
#526=VERTEX_POINT('',#1578);
#527=VERTEX_POINT('',#1580);
#528=VERTEX_POINT('',#1582);
#529=VERTEX_POINT('',#1586);
#530=VERTEX_POINT('',#1588);
#531=VERTEX_POINT('',#1592);
#532=VERTEX_POINT('',#1594);
#533=VERTEX_POINT('',#1601);
#534=VERTEX_POINT('',#1602);
#535=VERTEX_POINT('',#1607);
#536=VERTEX_POINT('',#1611);
#537=VERTEX_POINT('',#1617);
#538=VERTEX_POINT('',#1619);
#539=VERTEX_POINT('',#1624);
#540=VERTEX_POINT('',#1626);
#541=VERTEX_POINT('',#1631);
#542=VERTEX_POINT('',#1633);
#543=VERTEX_POINT('',#1638);
#544=VERTEX_POINT('',#1640);
#545=EDGE_CURVE('',#457,#457,#429,.T.);
#546=EDGE_CURVE('',#457,#458,#217,.T.);
#547=EDGE_CURVE('',#458,#458,#430,.T.);
#548=EDGE_CURVE('',#459,#460,#218,.T.);
#549=EDGE_CURVE('',#459,#461,#219,.T.);
#550=EDGE_CURVE('',#462,#461,#220,.T.);
#551=EDGE_CURVE('',#460,#462,#221,.T.);
#552=EDGE_CURVE('',#463,#463,#431,.T.);
#553=EDGE_CURVE('',#458,#464,#222,.T.);
#554=EDGE_CURVE('',#464,#464,#432,.T.);
#555=EDGE_CURVE('',#463,#465,#223,.T.);
#556=EDGE_CURVE('',#465,#465,#433,.T.);
#557=EDGE_CURVE('',#465,#466,#224,.T.);
#558=EDGE_CURVE('',#466,#466,#434,.T.);
#559=EDGE_CURVE('',#467,#467,#435,.T.);
#560=EDGE_CURVE('',#467,#468,#225,.T.);
#561=EDGE_CURVE('',#468,#468,#436,.T.);
#562=EDGE_CURVE('',#469,#470,#226,.T.);
#563=EDGE_CURVE('',#469,#471,#227,.F.);
#564=EDGE_CURVE('',#472,#471,#228,.T.);
#565=EDGE_CURVE('',#470,#472,#229,.T.);
#566=EDGE_CURVE('',#473,#473,#437,.T.);
#567=EDGE_CURVE('',#474,#475,#230,.T.);
#568=EDGE_CURVE('',#475,#476,#231,.T.);
#569=EDGE_CURVE('',#476,#477,#232,.T.);
#570=EDGE_CURVE('',#477,#474,#233,.T.);
#571=EDGE_CURVE('',#478,#479,#234,.T.);
#572=EDGE_CURVE('',#479,#480,#235,.T.);
#573=EDGE_CURVE('',#480,#481,#236,.T.);
#574=EDGE_CURVE('',#481,#478,#237,.T.);
#575=EDGE_CURVE('',#468,#482,#238,.T.);
#576=EDGE_CURVE('',#482,#482,#438,.T.);
#577=EDGE_CURVE('',#473,#483,#239,.T.);
#578=EDGE_CURVE('',#483,#483,#439,.T.);
#579=EDGE_CURVE('',#483,#484,#240,.T.);
#580=EDGE_CURVE('',#484,#484,#440,.T.);
#581=EDGE_CURVE('',#474,#485,#241,.T.);
#582=EDGE_CURVE('',#486,#485,#242,.T.);
#583=EDGE_CURVE('',#475,#486,#243,.T.);
#584=EDGE_CURVE('',#477,#487,#244,.T.);
#585=EDGE_CURVE('',#485,#487,#245,.T.);
#586=EDGE_CURVE('',#476,#488,#246,.T.);
#587=EDGE_CURVE('',#487,#488,#247,.T.);
#588=EDGE_CURVE('',#488,#486,#248,.T.);
#589=EDGE_CURVE('',#489,#490,#249,.T.);
#590=EDGE_CURVE('',#489,#491,#250,.T.);
#591=EDGE_CURVE('',#491,#492,#251,.T.);
#592=EDGE_CURVE('',#490,#492,#252,.T.);
#593=EDGE_CURVE('',#493,#491,#253,.T.);
#594=EDGE_CURVE('',#494,#493,#254,.T.);
#595=EDGE_CURVE('',#492,#494,#255,.T.);
#596=EDGE_CURVE('',#493,#495,#256,.T.);
#597=EDGE_CURVE('',#496,#495,#257,.T.);
#598=EDGE_CURVE('',#494,#496,#258,.T.);
#599=EDGE_CURVE('',#478,#497,#259,.T.);
#600=EDGE_CURVE('',#498,#497,#260,.T.);
#601=EDGE_CURVE('',#479,#498,#261,.T.);
#602=EDGE_CURVE('',#481,#499,#262,.T.);
#603=EDGE_CURVE('',#497,#499,#263,.T.);
#604=EDGE_CURVE('',#480,#500,#264,.T.);
#605=EDGE_CURVE('',#499,#500,#265,.T.);
#606=EDGE_CURVE('',#500,#498,#266,.T.);
#607=EDGE_CURVE('',#501,#502,#267,.T.);
#608=EDGE_CURVE('',#501,#503,#268,.T.);
#609=EDGE_CURVE('',#504,#503,#269,.T.);
#610=EDGE_CURVE('',#502,#504,#270,.T.);
#611=EDGE_CURVE('',#505,#501,#271,.T.);
#612=EDGE_CURVE('',#505,#506,#272,.T.);
#613=EDGE_CURVE('',#503,#506,#273,.T.);
#614=EDGE_CURVE('',#507,#505,#274,.T.);
#615=EDGE_CURVE('',#507,#508,#275,.T.);
#616=EDGE_CURVE('',#506,#508,#276,.T.);
#617=EDGE_CURVE('',#502,#507,#277,.T.);
#618=EDGE_CURVE('',#508,#504,#278,.T.);
#619=EDGE_CURVE('',#509,#510,#441,.T.);
#620=EDGE_CURVE('',#509,#511,#279,.T.);
#621=EDGE_CURVE('',#511,#512,#442,.T.);
#622=EDGE_CURVE('',#512,#510,#280,.T.);
#623=EDGE_CURVE('',#513,#512,#281,.T.);
#624=EDGE_CURVE('',#514,#513,#282,.T.);
#625=EDGE_CURVE('',#514,#510,#283,.T.);
#626=EDGE_CURVE('',#515,#516,#443,.T.);
#627=EDGE_CURVE('',#515,#517,#284,.T.);
#628=EDGE_CURVE('',#517,#518,#444,.T.);
#629=EDGE_CURVE('',#518,#516,#285,.T.);
#630=EDGE_CURVE('',#509,#516,#286,.T.);
#631=EDGE_CURVE('',#511,#518,#287,.T.);
#632=EDGE_CURVE('',#519,#520,#445,.T.);
#633=EDGE_CURVE('',#519,#521,#288,.T.);
#634=EDGE_CURVE('',#521,#522,#446,.T.);
#635=EDGE_CURVE('',#522,#520,#289,.T.);
#636=EDGE_CURVE('',#515,#520,#290,.T.);
#637=EDGE_CURVE('',#517,#522,#291,.T.);
#638=EDGE_CURVE('',#514,#523,#447,.T.);
#639=EDGE_CURVE('',#513,#524,#448,.T.);
#640=EDGE_CURVE('',#524,#523,#292,.T.);
#641=EDGE_CURVE('',#519,#523,#293,.T.);
#642=EDGE_CURVE('',#521,#524,#294,.T.);
#643=EDGE_CURVE('',#461,#472,#295,.T.);
#644=EDGE_CURVE('',#471,#462,#296,.T.);
#645=EDGE_CURVE('',#525,#526,#297,.T.);
#646=EDGE_CURVE('',#526,#527,#298,.T.);
#647=EDGE_CURVE('',#527,#528,#299,.T.);
#648=EDGE_CURVE('',#528,#525,#300,.T.);
#649=EDGE_CURVE('',#490,#529,#301,.T.);
#650=EDGE_CURVE('',#530,#496,#302,.T.);
#651=EDGE_CURVE('',#529,#530,#303,.T.);
#652=EDGE_CURVE('',#531,#489,#304,.T.);
#653=EDGE_CURVE('',#531,#532,#305,.T.);
#654=EDGE_CURVE('',#495,#532,#306,.T.);
#655=EDGE_CURVE('',#529,#531,#307,.T.);
#656=EDGE_CURVE('',#532,#530,#308,.T.);
#657=EDGE_CURVE('',#533,#534,#309,.T.);
#658=EDGE_CURVE('',#533,#525,#310,.T.);
#659=EDGE_CURVE('',#534,#528,#311,.T.);
#660=EDGE_CURVE('',#534,#535,#312,.T.);
#661=EDGE_CURVE('',#535,#527,#313,.T.);
#662=EDGE_CURVE('',#535,#536,#314,.T.);
#663=EDGE_CURVE('',#536,#526,#315,.T.);
#664=EDGE_CURVE('',#536,#533,#316,.T.);
#665=EDGE_CURVE('',#537,#537,#449,.T.);
#666=EDGE_CURVE('',#537,#538,#317,.T.);
#667=EDGE_CURVE('',#538,#538,#450,.T.);
#668=EDGE_CURVE('',#539,#539,#451,.T.);
#669=EDGE_CURVE('',#539,#540,#318,.T.);
#670=EDGE_CURVE('',#540,#540,#452,.T.);
#671=EDGE_CURVE('',#541,#541,#453,.T.);
#672=EDGE_CURVE('',#541,#542,#319,.T.);
#673=EDGE_CURVE('',#542,#542,#454,.T.);
#674=EDGE_CURVE('',#543,#543,#455,.T.);
#675=EDGE_CURVE('',#543,#544,#320,.T.);
#676=EDGE_CURVE('',#544,#544,#456,.T.);
#677=EDGE_CURVE('',#460,#469,#321,.T.);
#678=EDGE_CURVE('',#470,#459,#322,.T.);
#679=ORIENTED_EDGE('',*,*,#545,.T.);
#680=ORIENTED_EDGE('',*,*,#546,.T.);
#681=ORIENTED_EDGE('',*,*,#547,.T.);
#682=ORIENTED_EDGE('',*,*,#546,.F.);
#683=ORIENTED_EDGE('',*,*,#548,.F.);
#684=ORIENTED_EDGE('',*,*,#549,.T.);
#685=ORIENTED_EDGE('',*,*,#550,.F.);
#686=ORIENTED_EDGE('',*,*,#551,.F.);
#687=ORIENTED_EDGE('',*,*,#552,.F.);
#688=ORIENTED_EDGE('',*,*,#545,.F.);
#689=ORIENTED_EDGE('',*,*,#547,.F.);
#690=ORIENTED_EDGE('',*,*,#553,.T.);
#691=ORIENTED_EDGE('',*,*,#554,.F.);
#692=ORIENTED_EDGE('',*,*,#553,.F.);
#693=ORIENTED_EDGE('',*,*,#552,.T.);
#694=ORIENTED_EDGE('',*,*,#555,.T.);
#695=ORIENTED_EDGE('',*,*,#556,.T.);
#696=ORIENTED_EDGE('',*,*,#555,.F.);
#697=ORIENTED_EDGE('',*,*,#556,.F.);
#698=ORIENTED_EDGE('',*,*,#557,.T.);
#699=ORIENTED_EDGE('',*,*,#558,.F.);
#700=ORIENTED_EDGE('',*,*,#557,.F.);
#701=ORIENTED_EDGE('',*,*,#559,.T.);
#702=ORIENTED_EDGE('',*,*,#560,.T.);
#703=ORIENTED_EDGE('',*,*,#561,.T.);
#704=ORIENTED_EDGE('',*,*,#560,.F.);
#705=ORIENTED_EDGE('',*,*,#562,.F.);
#706=ORIENTED_EDGE('',*,*,#563,.T.);
#707=ORIENTED_EDGE('',*,*,#564,.F.);
#708=ORIENTED_EDGE('',*,*,#565,.F.);
#709=ORIENTED_EDGE('',*,*,#566,.F.);
#710=ORIENTED_EDGE('',*,*,#567,.T.);
#711=ORIENTED_EDGE('',*,*,#568,.T.);
#712=ORIENTED_EDGE('',*,*,#569,.T.);
#713=ORIENTED_EDGE('',*,*,#570,.T.);
#714=ORIENTED_EDGE('',*,*,#571,.T.);
#715=ORIENTED_EDGE('',*,*,#572,.T.);
#716=ORIENTED_EDGE('',*,*,#573,.T.);
#717=ORIENTED_EDGE('',*,*,#574,.T.);
#718=ORIENTED_EDGE('',*,*,#559,.F.);
#719=ORIENTED_EDGE('',*,*,#561,.F.);
#720=ORIENTED_EDGE('',*,*,#575,.T.);
#721=ORIENTED_EDGE('',*,*,#576,.F.);
#722=ORIENTED_EDGE('',*,*,#575,.F.);
#723=ORIENTED_EDGE('',*,*,#566,.T.);
#724=ORIENTED_EDGE('',*,*,#577,.T.);
#725=ORIENTED_EDGE('',*,*,#578,.T.);
#726=ORIENTED_EDGE('',*,*,#577,.F.);
#727=ORIENTED_EDGE('',*,*,#578,.F.);
#728=ORIENTED_EDGE('',*,*,#579,.T.);
#729=ORIENTED_EDGE('',*,*,#580,.F.);
#730=ORIENTED_EDGE('',*,*,#579,.F.);
#731=ORIENTED_EDGE('',*,*,#567,.F.);
#732=ORIENTED_EDGE('',*,*,#581,.T.);
#733=ORIENTED_EDGE('',*,*,#582,.F.);
#734=ORIENTED_EDGE('',*,*,#583,.F.);
#735=ORIENTED_EDGE('',*,*,#570,.F.);
#736=ORIENTED_EDGE('',*,*,#584,.T.);
#737=ORIENTED_EDGE('',*,*,#585,.F.);
#738=ORIENTED_EDGE('',*,*,#581,.F.);
#739=ORIENTED_EDGE('',*,*,#569,.F.);
#740=ORIENTED_EDGE('',*,*,#586,.T.);
#741=ORIENTED_EDGE('',*,*,#587,.F.);
#742=ORIENTED_EDGE('',*,*,#584,.F.);
#743=ORIENTED_EDGE('',*,*,#568,.F.);
#744=ORIENTED_EDGE('',*,*,#583,.T.);
#745=ORIENTED_EDGE('',*,*,#588,.F.);
#746=ORIENTED_EDGE('',*,*,#586,.F.);
#747=ORIENTED_EDGE('',*,*,#589,.F.);
#748=ORIENTED_EDGE('',*,*,#590,.T.);
#749=ORIENTED_EDGE('',*,*,#591,.T.);
#750=ORIENTED_EDGE('',*,*,#592,.F.);
#751=ORIENTED_EDGE('',*,*,#593,.F.);
#752=ORIENTED_EDGE('',*,*,#594,.F.);
#753=ORIENTED_EDGE('',*,*,#595,.F.);
#754=ORIENTED_EDGE('',*,*,#591,.F.);
#755=ORIENTED_EDGE('',*,*,#594,.T.);
#756=ORIENTED_EDGE('',*,*,#596,.T.);
#757=ORIENTED_EDGE('',*,*,#597,.F.);
#758=ORIENTED_EDGE('',*,*,#598,.F.);
#759=ORIENTED_EDGE('',*,*,#571,.F.);
#760=ORIENTED_EDGE('',*,*,#599,.T.);
#761=ORIENTED_EDGE('',*,*,#600,.F.);
#762=ORIENTED_EDGE('',*,*,#601,.F.);
#763=ORIENTED_EDGE('',*,*,#574,.F.);
#764=ORIENTED_EDGE('',*,*,#602,.T.);
#765=ORIENTED_EDGE('',*,*,#603,.F.);
#766=ORIENTED_EDGE('',*,*,#599,.F.);
#767=ORIENTED_EDGE('',*,*,#573,.F.);
#768=ORIENTED_EDGE('',*,*,#604,.T.);
#769=ORIENTED_EDGE('',*,*,#605,.F.);
#770=ORIENTED_EDGE('',*,*,#602,.F.);
#771=ORIENTED_EDGE('',*,*,#572,.F.);
#772=ORIENTED_EDGE('',*,*,#601,.T.);
#773=ORIENTED_EDGE('',*,*,#606,.F.);
#774=ORIENTED_EDGE('',*,*,#604,.F.);
#775=ORIENTED_EDGE('',*,*,#607,.F.);
#776=ORIENTED_EDGE('',*,*,#608,.T.);
#777=ORIENTED_EDGE('',*,*,#609,.F.);
#778=ORIENTED_EDGE('',*,*,#610,.F.);
#779=ORIENTED_EDGE('',*,*,#611,.F.);
#780=ORIENTED_EDGE('',*,*,#612,.T.);
#781=ORIENTED_EDGE('',*,*,#613,.F.);
#782=ORIENTED_EDGE('',*,*,#608,.F.);
#783=ORIENTED_EDGE('',*,*,#614,.F.);
#784=ORIENTED_EDGE('',*,*,#615,.T.);
#785=ORIENTED_EDGE('',*,*,#616,.F.);
#786=ORIENTED_EDGE('',*,*,#612,.F.);
#787=ORIENTED_EDGE('',*,*,#617,.F.);
#788=ORIENTED_EDGE('',*,*,#610,.T.);
#789=ORIENTED_EDGE('',*,*,#618,.F.);
#790=ORIENTED_EDGE('',*,*,#615,.F.);
#791=ORIENTED_EDGE('',*,*,#619,.F.);
#792=ORIENTED_EDGE('',*,*,#620,.T.);
#793=ORIENTED_EDGE('',*,*,#621,.T.);
#794=ORIENTED_EDGE('',*,*,#622,.T.);
#795=ORIENTED_EDGE('',*,*,#622,.F.);
#796=ORIENTED_EDGE('',*,*,#623,.F.);
#797=ORIENTED_EDGE('',*,*,#624,.F.);
#798=ORIENTED_EDGE('',*,*,#625,.T.);
#799=ORIENTED_EDGE('',*,*,#626,.F.);
#800=ORIENTED_EDGE('',*,*,#627,.T.);
#801=ORIENTED_EDGE('',*,*,#628,.T.);
#802=ORIENTED_EDGE('',*,*,#629,.T.);
#803=ORIENTED_EDGE('',*,*,#620,.F.);
#804=ORIENTED_EDGE('',*,*,#630,.T.);
#805=ORIENTED_EDGE('',*,*,#629,.F.);
#806=ORIENTED_EDGE('',*,*,#631,.F.);
#807=ORIENTED_EDGE('',*,*,#632,.F.);
#808=ORIENTED_EDGE('',*,*,#633,.T.);
#809=ORIENTED_EDGE('',*,*,#634,.T.);
#810=ORIENTED_EDGE('',*,*,#635,.T.);
#811=ORIENTED_EDGE('',*,*,#627,.F.);
#812=ORIENTED_EDGE('',*,*,#636,.T.);
#813=ORIENTED_EDGE('',*,*,#635,.F.);
#814=ORIENTED_EDGE('',*,*,#637,.F.);
#815=ORIENTED_EDGE('',*,*,#638,.F.);
#816=ORIENTED_EDGE('',*,*,#624,.T.);
#817=ORIENTED_EDGE('',*,*,#639,.T.);
#818=ORIENTED_EDGE('',*,*,#640,.T.);
#819=ORIENTED_EDGE('',*,*,#633,.F.);
#820=ORIENTED_EDGE('',*,*,#641,.T.);
#821=ORIENTED_EDGE('',*,*,#640,.F.);
#822=ORIENTED_EDGE('',*,*,#642,.F.);
#823=ORIENTED_EDGE('',*,*,#619,.T.);
#824=ORIENTED_EDGE('',*,*,#625,.F.);
#825=ORIENTED_EDGE('',*,*,#638,.T.);
#826=ORIENTED_EDGE('',*,*,#641,.F.);
#827=ORIENTED_EDGE('',*,*,#632,.T.);
#828=ORIENTED_EDGE('',*,*,#636,.F.);
#829=ORIENTED_EDGE('',*,*,#626,.T.);
#830=ORIENTED_EDGE('',*,*,#630,.F.);
#831=ORIENTED_EDGE('',*,*,#550,.T.);
#832=ORIENTED_EDGE('',*,*,#643,.T.);
#833=ORIENTED_EDGE('',*,*,#564,.T.);
#834=ORIENTED_EDGE('',*,*,#644,.T.);
#835=ORIENTED_EDGE('',*,*,#645,.T.);
#836=ORIENTED_EDGE('',*,*,#646,.T.);
#837=ORIENTED_EDGE('',*,*,#647,.T.);
#838=ORIENTED_EDGE('',*,*,#648,.T.);
#839=ORIENTED_EDGE('',*,*,#649,.F.);
#840=ORIENTED_EDGE('',*,*,#592,.T.);
#841=ORIENTED_EDGE('',*,*,#595,.T.);
#842=ORIENTED_EDGE('',*,*,#598,.T.);
#843=ORIENTED_EDGE('',*,*,#650,.F.);
#844=ORIENTED_EDGE('',*,*,#651,.F.);
#845=ORIENTED_EDGE('',*,*,#652,.F.);
#846=ORIENTED_EDGE('',*,*,#653,.T.);
#847=ORIENTED_EDGE('',*,*,#654,.F.);
#848=ORIENTED_EDGE('',*,*,#596,.F.);
#849=ORIENTED_EDGE('',*,*,#593,.T.);
#850=ORIENTED_EDGE('',*,*,#590,.F.);
#851=ORIENTED_EDGE('',*,*,#655,.F.);
#852=ORIENTED_EDGE('',*,*,#651,.T.);
#853=ORIENTED_EDGE('',*,*,#656,.F.);
#854=ORIENTED_EDGE('',*,*,#653,.F.);
#855=ORIENTED_EDGE('',*,*,#657,.F.);
#856=ORIENTED_EDGE('',*,*,#658,.T.);
#857=ORIENTED_EDGE('',*,*,#648,.F.);
#858=ORIENTED_EDGE('',*,*,#659,.F.);
#859=ORIENTED_EDGE('',*,*,#609,.T.);
#860=ORIENTED_EDGE('',*,*,#613,.T.);
#861=ORIENTED_EDGE('',*,*,#616,.T.);
#862=ORIENTED_EDGE('',*,*,#618,.T.);
#863=ORIENTED_EDGE('',*,*,#660,.F.);
#864=ORIENTED_EDGE('',*,*,#659,.T.);
#865=ORIENTED_EDGE('',*,*,#647,.F.);
#866=ORIENTED_EDGE('',*,*,#661,.F.);
#867=ORIENTED_EDGE('',*,*,#576,.T.);
#868=ORIENTED_EDGE('',*,*,#580,.T.);
#869=ORIENTED_EDGE('',*,*,#582,.T.);
#870=ORIENTED_EDGE('',*,*,#585,.T.);
#871=ORIENTED_EDGE('',*,*,#587,.T.);
#872=ORIENTED_EDGE('',*,*,#588,.T.);
#873=ORIENTED_EDGE('',*,*,#600,.T.);
#874=ORIENTED_EDGE('',*,*,#603,.T.);
#875=ORIENTED_EDGE('',*,*,#605,.T.);
#876=ORIENTED_EDGE('',*,*,#606,.T.);
#877=ORIENTED_EDGE('',*,*,#662,.F.);
#878=ORIENTED_EDGE('',*,*,#661,.T.);
#879=ORIENTED_EDGE('',*,*,#646,.F.);
#880=ORIENTED_EDGE('',*,*,#663,.F.);
#881=ORIENTED_EDGE('',*,*,#650,.T.);
#882=ORIENTED_EDGE('',*,*,#597,.T.);
#883=ORIENTED_EDGE('',*,*,#654,.T.);
#884=ORIENTED_EDGE('',*,*,#656,.T.);
#885=ORIENTED_EDGE('',*,*,#664,.F.);
#886=ORIENTED_EDGE('',*,*,#663,.T.);
#887=ORIENTED_EDGE('',*,*,#645,.F.);
#888=ORIENTED_EDGE('',*,*,#658,.F.);
#889=ORIENTED_EDGE('',*,*,#558,.T.);
#890=ORIENTED_EDGE('',*,*,#554,.T.);
#891=ORIENTED_EDGE('',*,*,#665,.F.);
#892=ORIENTED_EDGE('',*,*,#666,.T.);
#893=ORIENTED_EDGE('',*,*,#667,.F.);
#894=ORIENTED_EDGE('',*,*,#666,.F.);
#895=ORIENTED_EDGE('',*,*,#665,.T.);
#896=ORIENTED_EDGE('',*,*,#668,.F.);
#897=ORIENTED_EDGE('',*,*,#669,.T.);
#898=ORIENTED_EDGE('',*,*,#670,.F.);
#899=ORIENTED_EDGE('',*,*,#669,.F.);
#900=ORIENTED_EDGE('',*,*,#668,.T.);
#901=ORIENTED_EDGE('',*,*,#671,.F.);
#902=ORIENTED_EDGE('',*,*,#672,.T.);
#903=ORIENTED_EDGE('',*,*,#673,.F.);
#904=ORIENTED_EDGE('',*,*,#672,.F.);
#905=ORIENTED_EDGE('',*,*,#671,.T.);
#906=ORIENTED_EDGE('',*,*,#674,.F.);
#907=ORIENTED_EDGE('',*,*,#675,.T.);
#908=ORIENTED_EDGE('',*,*,#676,.F.);
#909=ORIENTED_EDGE('',*,*,#675,.F.);
#910=ORIENTED_EDGE('',*,*,#674,.T.);
#911=ORIENTED_EDGE('',*,*,#677,.F.);
#912=ORIENTED_EDGE('',*,*,#551,.T.);
#913=ORIENTED_EDGE('',*,*,#644,.F.);
#914=ORIENTED_EDGE('',*,*,#563,.F.);
#915=ORIENTED_EDGE('',*,*,#649,.T.);
#916=ORIENTED_EDGE('',*,*,#655,.T.);
#917=ORIENTED_EDGE('',*,*,#652,.T.);
#918=ORIENTED_EDGE('',*,*,#589,.T.);
#919=ORIENTED_EDGE('',*,*,#623,.T.);
#920=ORIENTED_EDGE('',*,*,#621,.F.);
#921=ORIENTED_EDGE('',*,*,#631,.T.);
#922=ORIENTED_EDGE('',*,*,#628,.F.);
#923=ORIENTED_EDGE('',*,*,#637,.T.);
#924=ORIENTED_EDGE('',*,*,#634,.F.);
#925=ORIENTED_EDGE('',*,*,#642,.T.);
#926=ORIENTED_EDGE('',*,*,#639,.F.);
#927=ORIENTED_EDGE('',*,*,#678,.F.);
#928=ORIENTED_EDGE('',*,*,#565,.T.);
#929=ORIENTED_EDGE('',*,*,#643,.F.);
#930=ORIENTED_EDGE('',*,*,#549,.F.);
#931=ORIENTED_EDGE('',*,*,#607,.T.);
#932=ORIENTED_EDGE('',*,*,#617,.T.);
#933=ORIENTED_EDGE('',*,*,#614,.T.);
#934=ORIENTED_EDGE('',*,*,#611,.T.);
#935=ORIENTED_EDGE('',*,*,#657,.T.);
#936=ORIENTED_EDGE('',*,*,#660,.T.);
#937=ORIENTED_EDGE('',*,*,#662,.T.);
#938=ORIENTED_EDGE('',*,*,#664,.T.);
#939=ORIENTED_EDGE('',*,*,#667,.T.);
#940=ORIENTED_EDGE('',*,*,#670,.T.);
#941=ORIENTED_EDGE('',*,*,#673,.T.);
#942=ORIENTED_EDGE('',*,*,#676,.T.);
#943=ORIENTED_EDGE('',*,*,#678,.T.);
#944=ORIENTED_EDGE('',*,*,#548,.T.);
#945=ORIENTED_EDGE('',*,*,#677,.T.);
#946=ORIENTED_EDGE('',*,*,#562,.T.);
#947=CONICAL_SURFACE('',#1019,2.1,0.785398163397144);
#948=CONICAL_SURFACE('',#1026,2.1,0.785398163397412);
#949=CONICAL_SURFACE('',#1030,2.1,0.785398163397499);
#950=CONICAL_SURFACE('',#1037,2.1,0.785398163397624);
#951=ADVANCED_FACE('',(#87),#947,.F.);
#952=ADVANCED_FACE('',(#88,#27,#28),#49,.T.);
#953=ADVANCED_FACE('',(#89),#15,.F.);
#954=ADVANCED_FACE('',(#90),#948,.F.);
#955=ADVANCED_FACE('',(#91),#16,.F.);
#956=ADVANCED_FACE('',(#92),#949,.F.);
#957=ADVANCED_FACE('',(#93,#29,#30,#31,#32),#50,.T.);
#958=ADVANCED_FACE('',(#94),#17,.F.);
#959=ADVANCED_FACE('',(#95),#950,.F.);
#960=ADVANCED_FACE('',(#96),#18,.F.);
#961=ADVANCED_FACE('',(#97),#51,.F.);
#962=ADVANCED_FACE('',(#98),#52,.F.);
#963=ADVANCED_FACE('',(#99),#53,.F.);
#964=ADVANCED_FACE('',(#100),#54,.F.);
#965=ADVANCED_FACE('',(#101),#55,.F.);
#966=ADVANCED_FACE('',(#102),#56,.F.);
#967=ADVANCED_FACE('',(#103),#57,.F.);
#968=ADVANCED_FACE('',(#104),#58,.F.);
#969=ADVANCED_FACE('',(#105),#59,.F.);
#970=ADVANCED_FACE('',(#106),#60,.F.);
#971=ADVANCED_FACE('',(#107),#61,.F.);
#972=ADVANCED_FACE('',(#108),#62,.F.);
#973=ADVANCED_FACE('',(#109),#63,.F.);
#974=ADVANCED_FACE('',(#110),#64,.F.);
#975=ADVANCED_FACE('',(#111),#65,.F.);
#976=ADVANCED_FACE('',(#112),#19,.F.);
#977=ADVANCED_FACE('',(#113),#66,.F.);
#978=ADVANCED_FACE('',(#114),#20,.F.);
#979=ADVANCED_FACE('',(#115),#67,.F.);
#980=ADVANCED_FACE('',(#116),#21,.F.);
#981=ADVANCED_FACE('',(#117),#68,.F.);
#982=ADVANCED_FACE('',(#118),#22,.F.);
#983=ADVANCED_FACE('',(#119),#69,.F.);
#984=ADVANCED_FACE('',(#120),#70,.F.);
#985=ADVANCED_FACE('',(#121,#33),#71,.T.);
#986=ADVANCED_FACE('',(#122),#72,.F.);
#987=ADVANCED_FACE('',(#123),#73,.F.);
#988=ADVANCED_FACE('',(#124),#74,.F.);
#989=ADVANCED_FACE('',(#125,#34),#75,.T.);
#990=ADVANCED_FACE('',(#126,#35,#36,#37,#38),#76,.T.);
#991=ADVANCED_FACE('',(#127,#39),#77,.T.);
#992=ADVANCED_FACE('',(#128,#40,#41),#78,.T.);
#993=ADVANCED_FACE('',(#129),#23,.T.);
#994=ADVANCED_FACE('',(#130),#79,.T.);
#995=ADVANCED_FACE('',(#131),#24,.T.);
#996=ADVANCED_FACE('',(#132),#80,.T.);
#997=ADVANCED_FACE('',(#133),#25,.T.);
#998=ADVANCED_FACE('',(#134),#81,.T.);
#999=ADVANCED_FACE('',(#135),#26,.T.);
#1000=ADVANCED_FACE('',(#136),#82,.T.);
#1001=ADVANCED_FACE('',(#137,#42,#43),#83,.T.);
#1002=ADVANCED_FACE('',(#138,#44),#84,.T.);
#1003=ADVANCED_FACE('',(#139,#45,#46,#47,#48),#85,.T.);
#1004=ADVANCED_FACE('',(#140),#86,.F.);
#1005=CLOSED_SHELL('',(#951,#952,#953,#954,#955,#956,#957,#958,#959,#960,
#961,#962,#963,#964,#965,#966,#967,#968,#969,#970,#971,#972,#973,#974,#975,
#976,#977,#978,#979,#980,#981,#982,#983,#984,#985,#986,#987,#988,#989,#990,
#991,#992,#993,#994,#995,#996,#997,#998,#999,#1000,#1001,#1002,#1003,#1004));
#1006=DERIVED_UNIT_ELEMENT(#1008,1.);
#1007=DERIVED_UNIT_ELEMENT(#1655,-3.);
#1008=(
MASS_UNIT()
NAMED_UNIT(*)
SI_UNIT(.KILO.,.GRAM.)
);
#1009=DERIVED_UNIT((#1006,#1007));
#1010=MEASURE_REPRESENTATION_ITEM('density measure',
POSITIVE_RATIO_MEASURE(7850.),#1009);
#1011=PROPERTY_DEFINITION_REPRESENTATION(#1016,#1013);
#1012=PROPERTY_DEFINITION_REPRESENTATION(#1017,#1014);
#1013=REPRESENTATION('material name',(#1015),#1652);
#1014=REPRESENTATION('density',(#1010),#1652);
#1015=DESCRIPTIVE_REPRESENTATION_ITEM('Steel','Steel');
#1016=PROPERTY_DEFINITION('material property','material name',#1662);
#1017=PROPERTY_DEFINITION('material property','density of part',#1662);
#1018=AXIS2_PLACEMENT_3D('',#1373,#1101,#1102);
#1019=AXIS2_PLACEMENT_3D('',#1374,#1103,#1104);
#1020=AXIS2_PLACEMENT_3D('',#1376,#1105,#1106);
#1021=AXIS2_PLACEMENT_3D('',#1379,#1108,#1109);
#1022=AXIS2_PLACEMENT_3D('',#1380,#1110,#1111);
#1023=AXIS2_PLACEMENT_3D('',#1390,#1116,#1117);
#1024=AXIS2_PLACEMENT_3D('',#1391,#1118,#1119);
#1025=AXIS2_PLACEMENT_3D('',#1394,#1121,#1122);
#1026=AXIS2_PLACEMENT_3D('',#1395,#1123,#1124);
#1027=AXIS2_PLACEMENT_3D('',#1398,#1126,#1127);
#1028=AXIS2_PLACEMENT_3D('',#1399,#1128,#1129);
#1029=AXIS2_PLACEMENT_3D('',#1402,#1131,#1132);
#1030=AXIS2_PLACEMENT_3D('',#1403,#1133,#1134);
#1031=AXIS2_PLACEMENT_3D('',#1405,#1135,#1136);
#1032=AXIS2_PLACEMENT_3D('',#1408,#1138,#1139);
#1033=AXIS2_PLACEMENT_3D('',#1409,#1140,#1141);
#1034=AXIS2_PLACEMENT_3D('',#1419,#1146,#1147);
#1035=AXIS2_PLACEMENT_3D('',#1436,#1156,#1157);
#1036=AXIS2_PLACEMENT_3D('',#1439,#1159,#1160);
#1037=AXIS2_PLACEMENT_3D('',#1440,#1161,#1162);
#1038=AXIS2_PLACEMENT_3D('',#1443,#1164,#1165);
#1039=AXIS2_PLACEMENT_3D('',#1444,#1166,#1167);
#1040=AXIS2_PLACEMENT_3D('',#1447,#1169,#1170);
#1041=AXIS2_PLACEMENT_3D('',#1448,#1171,#1172);
#1042=AXIS2_PLACEMENT_3D('',#1454,#1176,#1177);
#1043=AXIS2_PLACEMENT_3D('',#1458,#1180,#1181);
#1044=AXIS2_PLACEMENT_3D('',#1462,#1184,#1185);
#1045=AXIS2_PLACEMENT_3D('',#1464,#1187,#1188);
#1046=AXIS2_PLACEMENT_3D('',#1473,#1193,#1194);
#1047=AXIS2_PLACEMENT_3D('',#1479,#1198,#1199);
#1048=AXIS2_PLACEMENT_3D('',#1485,#1203,#1204);
#1049=AXIS2_PLACEMENT_3D('',#1491,#1208,#1209);
#1050=AXIS2_PLACEMENT_3D('',#1495,#1212,#1213);
#1051=AXIS2_PLACEMENT_3D('',#1499,#1216,#1217);
#1052=AXIS2_PLACEMENT_3D('',#1501,#1219,#1220);
#1053=AXIS2_PLACEMENT_3D('',#1510,#1225,#1226);
#1054=AXIS2_PLACEMENT_3D('',#1516,#1230,#1231);
#1055=AXIS2_PLACEMENT_3D('',#1522,#1235,#1236);
#1056=AXIS2_PLACEMENT_3D('',#1525,#1239,#1240);
#1057=AXIS2_PLACEMENT_3D('',#1528,#1241,#1242);
#1058=AXIS2_PLACEMENT_3D('',#1532,#1244,#1245);
#1059=AXIS2_PLACEMENT_3D('',#1534,#1247,#1248);
#1060=AXIS2_PLACEMENT_3D('',#1540,#1252,#1253);
#1061=AXIS2_PLACEMENT_3D('',#1543,#1254,#1255);
#1062=AXIS2_PLACEMENT_3D('',#1547,#1257,#1258);
#1063=AXIS2_PLACEMENT_3D('',#1549,#1260,#1261);
#1064=AXIS2_PLACEMENT_3D('',#1552,#1264,#1265);
#1065=AXIS2_PLACEMENT_3D('',#1555,#1266,#1267);
#1066=AXIS2_PLACEMENT_3D('',#1559,#1269,#1270);
#1067=AXIS2_PLACEMENT_3D('',#1561,#1272,#1273);
#1068=AXIS2_PLACEMENT_3D('',#1564,#1276,#1277);
#1069=AXIS2_PLACEMENT_3D('',#1566,#1278,#1279);
#1070=AXIS2_PLACEMENT_3D('',#1568,#1280,#1281);
#1071=AXIS2_PLACEMENT_3D('',#1570,#1283,#1284);
#1072=AXIS2_PLACEMENT_3D('',#1573,#1287,#1288);
#1073=AXIS2_PLACEMENT_3D('',#1574,#1289,#1290);
#1074=AXIS2_PLACEMENT_3D('',#1585,#1297,#1298);
#1075=AXIS2_PLACEMENT_3D('',#1591,#1302,#1303);
#1076=AXIS2_PLACEMENT_3D('',#1597,#1307,#1308);
#1077=AXIS2_PLACEMENT_3D('',#1600,#1311,#1312);
#1078=AXIS2_PLACEMENT_3D('',#1606,#1316,#1317);
#1079=AXIS2_PLACEMENT_3D('',#1610,#1320,#1321);
#1080=AXIS2_PLACEMENT_3D('',#1614,#1324,#1325);
#1081=AXIS2_PLACEMENT_3D('',#1616,#1327,#1328);
#1082=AXIS2_PLACEMENT_3D('',#1618,#1329,#1330);
#1083=AXIS2_PLACEMENT_3D('',#1621,#1332,#1333);
#1084=AXIS2_PLACEMENT_3D('',#1622,#1334,#1335);
#1085=AXIS2_PLACEMENT_3D('',#1623,#1336,#1337);
#1086=AXIS2_PLACEMENT_3D('',#1625,#1338,#1339);
#1087=AXIS2_PLACEMENT_3D('',#1628,#1341,#1342);
#1088=AXIS2_PLACEMENT_3D('',#1629,#1343,#1344);
#1089=AXIS2_PLACEMENT_3D('',#1630,#1345,#1346);
#1090=AXIS2_PLACEMENT_3D('',#1632,#1347,#1348);
#1091=AXIS2_PLACEMENT_3D('',#1635,#1350,#1351);
#1092=AXIS2_PLACEMENT_3D('',#1636,#1352,#1353);
#1093=AXIS2_PLACEMENT_3D('',#1637,#1354,#1355);
#1094=AXIS2_PLACEMENT_3D('',#1639,#1356,#1357);
#1095=AXIS2_PLACEMENT_3D('',#1642,#1359,#1360);
#1096=AXIS2_PLACEMENT_3D('',#1643,#1361,#1362);
#1097=AXIS2_PLACEMENT_3D('',#1644,#1363,#1364);
#1098=AXIS2_PLACEMENT_3D('',#1646,#1366,#1367);
#1099=AXIS2_PLACEMENT_3D('',#1648,#1369,#1370);
#1100=AXIS2_PLACEMENT_3D('',#1649,#1371,#1372);
#1101=DIRECTION('axis',(0.,0.,1.));
#1102=DIRECTION('refdir',(1.,0.,0.));
#1103=DIRECTION('center_axis',(1.,0.,0.));
#1104=DIRECTION('ref_axis',(1.12784561231762E-15,-1.,5.22570538895265E-17));
#1105=DIRECTION('center_axis',(1.,0.,0.));
#1106=DIRECTION('ref_axis',(0.,-1.,5.22570538895265E-17));
#1107=DIRECTION('',(-0.707106781186761,-0.707106781186334,-4.96442884534193E-17));
#1108=DIRECTION('center_axis',(-1.,0.,0.));
#1109=DIRECTION('ref_axis',(2.96059473233374E-15,-1.,5.22570538895265E-17));
#1110=DIRECTION('center_axis',(1.,0.,0.));
#1111=DIRECTION('ref_axis',(0.,1.,0.));
#1112=DIRECTION('',(0.,-1.,0.));
#1113=DIRECTION('',(0.,0.,1.));
#1114=DIRECTION('',(2.93612700727314E-16,1.,0.));
#1115=DIRECTION('',(0.,0.,1.));
#1116=DIRECTION('center_axis',(1.,0.,0.));
#1117=DIRECTION('ref_axis',(0.,-1.,5.22570538895265E-17));
#1118=DIRECTION('center_axis',(1.,2.96059473233374E-15,0.));
#1119=DIRECTION('ref_axis',(2.96059473233374E-15,-1.,5.22570538895265E-17));
#1120=DIRECTION('',(-1.,-2.96059473233374E-15,0.));
#1121=DIRECTION('center_axis',(1.,3.08931624243522E-16,0.));
#1122=DIRECTION('ref_axis',(2.96059473233374E-15,-1.,5.22570538895265E-17));
#1123=DIRECTION('center_axis',(1.,0.,0.));
#1124=DIRECTION('ref_axis',(5.63922806158809E-16,-1.,5.22570538895265E-17));
#1125=DIRECTION('',(-0.707106781186572,-0.707106781186523,-4.96442884534326E-17));
#1126=DIRECTION('center_axis',(-1.,0.,0.));
#1127=DIRECTION('ref_axis',(1.48029736616687E-15,-1.,5.22570538895265E-17));
#1128=DIRECTION('center_axis',(1.,1.48029736616687E-15,0.));
#1129=DIRECTION('ref_axis',(1.48029736616687E-15,-1.,5.22570538895265E-17));
#1130=DIRECTION('',(-1.,-1.48029736616687E-15,0.));
#1131=DIRECTION('center_axis',(1.,3.08931624243522E-16,0.));
#1132=DIRECTION('ref_axis',(1.48029736616687E-15,-1.,5.22570538895265E-17));
#1133=DIRECTION('center_axis',(-1.,0.,0.));
#1134=DIRECTION('ref_axis',(-9.44570700316005E-16,-1.,5.22570538895265E-17));
#1135=DIRECTION('center_axis',(-1.,-2.96059473233375E-16,0.));
#1136=DIRECTION('ref_axis',(2.96059473233375E-16,-1.,5.22570538895265E-17));
#1137=DIRECTION('',(0.707106781186509,-0.707106781186585,1.23546922793671E-16));
#1138=DIRECTION('center_axis',(1.,2.96059473233375E-16,0.));
#1139=DIRECTION('ref_axis',(-2.96059473233374E-15,-1.,5.22570538895265E-17));
#1140=DIRECTION('center_axis',(-1.,-2.96059473233375E-16,0.));
#1141=DIRECTION('ref_axis',(2.96059473233375E-16,-1.,0.));
#1142=DIRECTION('',(-2.96059473233375E-16,1.,0.));
#1143=DIRECTION('',(0.,0.,-1.));
#1144=DIRECTION('',(2.93612700727314E-16,-1.,0.));
#1145=DIRECTION('',(0.,0.,1.));
#1146=DIRECTION('center_axis',(-1.,-2.96059473233375E-16,0.));
#1147=DIRECTION('ref_axis',(2.96059473233375E-16,-1.,5.22570538895265E-17));
#1148=DIRECTION('',(-2.96059473233375E-16,1.,0.));
#1149=DIRECTION('',(1.09564014614029E-31,-3.70074341541719E-16,1.));
#1150=DIRECTION('',(2.96059473233375E-16,-1.,0.));
#1151=DIRECTION('',(-5.47820073070147E-32,1.85037170770859E-16,-1.));
#1152=DIRECTION('',(-6.57384087684177E-32,2.22044604925031E-16,1.));
#1153=DIRECTION('',(2.96059473233375E-16,-1.,0.));
#1154=DIRECTION('',(3.28692043842088E-32,-1.11022302462516E-16,-1.));
#1155=DIRECTION('',(-2.96059473233375E-16,1.,0.));
#1156=DIRECTION('center_axis',(1.,-2.96059473233374E-15,0.));
#1157=DIRECTION('ref_axis',(-2.96059473233374E-15,-1.,5.22570538895265E-17));
#1158=DIRECTION('',(1.,-2.96059473233374E-15,0.));
#1159=DIRECTION('center_axis',(-1.,0.,0.));
#1160=DIRECTION('ref_axis',(-2.96059473233374E-15,-1.,5.22570538895265E-17));
#1161=DIRECTION('center_axis',(-1.,0.,0.));
#1162=DIRECTION('ref_axis',(-3.80647894157196E-16,-1.,5.22570538895265E-17));
#1163=DIRECTION('',(0.707106781186422,-0.707106781186673,1.23546922793686E-16));
#1164=DIRECTION('center_axis',(1.,2.96059473233375E-16,0.));
#1165=DIRECTION('ref_axis',(-1.48029736616687E-15,-1.,5.22570538895265E-17));
#1166=DIRECTION('center_axis',(1.,-1.48029736616687E-15,0.));
#1167=DIRECTION('ref_axis',(-1.48029736616687E-15,-1.,5.22570538895265E-17));
#1168=DIRECTION('',(1.,-1.48029736616687E-15,0.));
#1169=DIRECTION('center_axis',(-1.,0.,0.));
#1170=DIRECTION('ref_axis',(-1.48029736616687E-15,-1.,5.22570538895265E-17));
#1171=DIRECTION('center_axis',(0.,0.,-1.));
#1172=DIRECTION('ref_axis',(0.,1.,0.));
#1173=DIRECTION('',(1.,0.,0.));
#1174=DIRECTION('',(0.,-1.,0.));
#1175=DIRECTION('',(1.,0.,0.));
#1176=DIRECTION('center_axis',(0.,-1.,-1.85037170770859E-16));
#1177=DIRECTION('ref_axis',(0.,1.85037170770859E-16,-1.));
#1178=DIRECTION('',(1.,0.,0.));
#1179=DIRECTION('',(0.,-1.85037170770859E-16,1.));
#1180=DIRECTION('center_axis',(0.,0.,1.));
#1181=DIRECTION('ref_axis',(0.,-1.,0.));
#1182=DIRECTION('',(1.,0.,0.));
#1183=DIRECTION('',(0.,1.,0.));
#1184=DIRECTION('center_axis',(0.,1.,3.70074341541719E-16));
#1185=DIRECTION('ref_axis',(0.,-3.70074341541719E-16,1.));
#1186=DIRECTION('',(0.,3.70074341541719E-16,-1.));
#1187=DIRECTION('center_axis',(0.,0.,1.));
#1188=DIRECTION('ref_axis',(1.,-5.55111512312578E-17,0.));
#1189=DIRECTION('',(1.,0.,0.));
#1190=DIRECTION('',(0.,1.,0.));
#1191=DIRECTION('',(1.,-5.55111512312578E-17,0.));
#1192=DIRECTION('',(0.,1.,0.));
#1193=DIRECTION('center_axis',(0.,1.,0.));
#1194=DIRECTION('ref_axis',(0.,0.,1.));
#1195=DIRECTION('',(1.59872115546023E-13,-8.87468518373638E-30,1.));
#1196=DIRECTION('',(-1.,0.,0.));
#1197=DIRECTION('',(0.,0.,-1.));
#1198=DIRECTION('center_axis',(0.,0.,1.));
#1199=DIRECTION('ref_axis',(1.,-5.55111512312578E-17,0.));
#1200=DIRECTION('',(0.,1.,0.));
#1201=DIRECTION('',(-1.,1.08314441426845E-16,0.));
#1202=DIRECTION('',(0.,1.,0.));
#1203=DIRECTION('center_axis',(0.,1.,-2.22044604925031E-16));
#1204=DIRECTION('ref_axis',(-1.79286569368412E-32,2.22044604925031E-16,
1.));
#1205=DIRECTION('',(1.,0.,0.));
#1206=DIRECTION('',(0.,-2.22044604925031E-16,-1.));
#1207=DIRECTION('',(1.,0.,0.));
#1208=DIRECTION('center_axis',(0.,0.,-1.));
#1209=DIRECTION('ref_axis',(-8.07434927000114E-17,1.,0.));
#1210=DIRECTION('',(1.,0.,0.));
#1211=DIRECTION('',(0.,-1.,0.));
#1212=DIRECTION('center_axis',(0.,-1.,1.11022302462516E-16));
#1213=DIRECTION('ref_axis',(8.96432846842059E-33,-1.11022302462516E-16,
-1.));
#1214=DIRECTION('',(1.,0.,0.));
#1215=DIRECTION('',(0.,1.11022302462516E-16,1.));
#1216=DIRECTION('center_axis',(0.,0.,1.));
#1217=DIRECTION('ref_axis',(8.07434927000114E-17,-1.,0.));
#1218=DIRECTION('',(0.,1.,0.));
#1219=DIRECTION('center_axis',(-1.,0.,0.));
#1220=DIRECTION('ref_axis',(0.,0.,-1.));
#1221=DIRECTION('',(0.,0.,-1.));
#1222=DIRECTION('',(0.,-1.,0.));
#1223=DIRECTION('',(0.,0.,1.));
#1224=DIRECTION('',(0.,-1.,0.));
#1225=DIRECTION('center_axis',(0.,0.,1.));
#1226=DIRECTION('ref_axis',(-1.,-1.11022302462516E-16,0.));
#1227=DIRECTION('',(-1.,-1.0449157878825E-16,0.));
#1228=DIRECTION('',(0.,-1.,0.));
#1229=DIRECTION('',(1.,1.08314441426845E-16,0.));
#1230=DIRECTION('center_axis',(1.,0.,0.));
#1231=DIRECTION('ref_axis',(0.,0.,1.));
#1232=DIRECTION('',(0.,0.,1.));
#1233=DIRECTION('',(0.,-1.,0.));
#1234=DIRECTION('',(0.,0.,-1.));
#1235=DIRECTION('center_axis',(0.,0.,-1.));
#1236=DIRECTION('ref_axis',(1.,1.11022302462516E-16,0.));
#1237=DIRECTION('',(1.,1.0449157878825E-16,0.));
#1238=DIRECTION('',(-1.,-1.08314441426845E-16,0.));
#1239=DIRECTION('center_axis',(0.,1.,0.));
#1240=DIRECTION('ref_axis',(-0.707106781186547,0.,0.707106781186548));
#1241=DIRECTION('center_axis',(0.,-1.,0.));
#1242=DIRECTION('ref_axis',(-0.707106781186547,0.,0.707106781186548));
#1243=DIRECTION('',(0.,-1.,0.));
#1244=DIRECTION('center_axis',(0.,-1.,0.));
#1245=DIRECTION('ref_axis',(-0.707106781186547,0.,0.707106781186548));
#1246=DIRECTION('',(0.,1.,0.));
#1247=DIRECTION('center_axis',(-1.,0.,0.));
#1248=DIRECTION('ref_axis',(0.,0.,1.));
#1249=DIRECTION('',(0.,0.,1.));
#1250=DIRECTION('',(0.,-1.,0.));
#1251=DIRECTION('',(0.,0.,1.));
#1252=DIRECTION('center_axis',(0.,1.,0.));
#1253=DIRECTION('ref_axis',(0.707106781186547,0.,0.707106781186548));
#1254=DIRECTION('center_axis',(0.,-1.,0.));
#1255=DIRECTION('ref_axis',(0.707106781186547,0.,0.707106781186548));
#1256=DIRECTION('',(0.,-1.,0.));
#1257=DIRECTION('center_axis',(0.,-1.,0.));
#1258=DIRECTION('ref_axis',(0.707106781186547,0.,0.707106781186548));
#1259=DIRECTION('',(0.,1.,0.));
#1260=DIRECTION('center_axis',(0.,0.,1.));
#1261=DIRECTION('ref_axis',(1.,-5.55111512312578E-17,0.));
#1262=DIRECTION('',(1.,-5.55111512312578E-17,0.));
#1263=DIRECTION('',(1.,0.,0.));
#1264=DIRECTION('center_axis',(0.,1.,0.));
#1265=DIRECTION('ref_axis',(0.707106781186548,0.,-0.707106781186548));
#1266=DIRECTION('center_axis',(0.,-1.,0.));
#1267=DIRECTION('ref_axis',(0.707106781186548,0.,-0.707106781186548));
#1268=DIRECTION('',(0.,-1.,0.));
#1269=DIRECTION('center_axis',(0.,-1.,0.));
#1270=DIRECTION('ref_axis',(0.707106781186548,0.,-0.707106781186548));
#1271=DIRECTION('',(0.,1.,0.));
#1272=DIRECTION('center_axis',(1.,0.,3.70074341541719E-16));
#1273=DIRECTION('ref_axis',(3.70074341541719E-16,-2.05432527401305E-32,
-1.));
#1274=DIRECTION('',(3.70074341541719E-16,-2.05432527401305E-32,-1.));
#1275=DIRECTION('',(3.70074341541719E-16,0.,-1.));
#1276=DIRECTION('center_axis',(0.,1.,0.));
#1277=DIRECTION('ref_axis',(-0.707106781186549,0.,-0.707106781186546));
#1278=DIRECTION('center_axis',(0.,-1.,0.));
#1279=DIRECTION('ref_axis',(-0.707106781186549,0.,-0.707106781186546));
#1280=DIRECTION('center_axis',(0.,-1.,0.));
#1281=DIRECTION('ref_axis',(-0.707106781186549,0.,-0.707106781186546));
#1282=DIRECTION('',(0.,1.,0.));
#1283=DIRECTION('center_axis',(5.8432790769745E-17,0.,-1.));
#1284=DIRECTION('ref_axis',(-1.,5.55111512312578E-17,-5.8432790769745E-17));
#1285=DIRECTION('',(-1.,5.55111512312578E-17,-5.8432790769745E-17));
#1286=DIRECTION('',(-1.,0.,-5.8432790769745E-17));
#1287=DIRECTION('center_axis',(0.,1.,0.));
#1288=DIRECTION('ref_axis',(0.,0.,1.));
#1289=DIRECTION('center_axis',(0.,0.,1.));
#1290=DIRECTION('ref_axis',(1.,0.,0.));
#1291=DIRECTION('',(-1.,-1.0449157878825E-16,0.));
#1292=DIRECTION('',(1.,0.,0.));
#1293=DIRECTION('',(3.08931624243522E-16,-1.,0.));
#1294=DIRECTION('',(-1.,1.08314441426845E-16,0.));
#1295=DIRECTION('',(0.,1.,0.));
#1296=DIRECTION('',(1.,1.08314441426845E-16,0.));
#1297=DIRECTION('center_axis',(1.,0.,0.));
#1298=DIRECTION('ref_axis',(0.,0.,-1.));
#1299=DIRECTION('',(0.,0.,-1.));
#1300=DIRECTION('',(0.,0.,1.));
#1301=DIRECTION('',(0.,1.,0.));
#1302=DIRECTION('center_axis',(-1.,0.,0.));
#1303=DIRECTION('ref_axis',(0.,0.,1.));
#1304=DIRECTION('',(1.59872115546023E-13,0.,1.));
#1305=DIRECTION('',(0.,1.,0.));
#1306=DIRECTION('',(0.,0.,-1.));
#1307=DIRECTION('center_axis',(0.,0.,-1.));
#1308=DIRECTION('ref_axis',(-1.,5.55111512312578E-17,0.));
#1309=DIRECTION('',(-1.,0.,0.));
#1310=DIRECTION('',(1.,-1.08314441426845E-16,0.));
#1311=DIRECTION('center_axis',(1.08314441426845E-16,-1.,0.));
#1312=DIRECTION('ref_axis',(1.,1.08314441426845E-16,0.));
#1313=DIRECTION('',(-1.,-1.08314441426845E-16,0.));
#1314=DIRECTION('',(0.,0.,1.));
#1315=DIRECTION('',(0.,0.,1.));
#1316=DIRECTION('center_axis',(1.,0.,0.));
#1317=DIRECTION('ref_axis',(0.,1.,0.));
#1318=DIRECTION('',(0.,-1.,0.));
#1319=DIRECTION('',(0.,0.,1.));
#1320=DIRECTION('center_axis',(1.08314441426845E-16,1.,0.));
#1321=DIRECTION('ref_axis',(-1.,1.08314441426845E-16,0.));
#1322=DIRECTION('',(1.,-1.08314441426845E-16,0.));
#1323=DIRECTION('',(0.,0.,1.));
#1324=DIRECTION('center_axis',(-1.,-3.08931624243522E-16,0.));
#1325=DIRECTION('ref_axis',(3.08931624243522E-16,-1.,0.));
#1326=DIRECTION('',(-3.08931624243522E-16,1.,0.));
#1327=DIRECTION('center_axis',(0.,0.,1.));
#1328=DIRECTION('ref_axis',(-1.,0.,0.));
#1329=DIRECTION('center_axis',(0.,0.,1.));
#1330=DIRECTION('ref_axis',(-1.,0.,0.));
#1331=DIRECTION('',(0.,0.,-1.));
#1332=DIRECTION('center_axis',(0.,0.,-1.));
#1333=DIRECTION('ref_axis',(-1.,0.,0.));
#1334=DIRECTION('center_axis',(0.,0.,1.));
#1335=DIRECTION('ref_axis',(-1.,0.,0.));
#1336=DIRECTION('center_axis',(0.,0.,1.));
#1337=DIRECTION('ref_axis',(-1.,0.,0.));
#1338=DIRECTION('center_axis',(0.,0.,1.));
#1339=DIRECTION('ref_axis',(-1.,0.,0.));
#1340=DIRECTION('',(0.,0.,-1.));
#1341=DIRECTION('center_axis',(0.,0.,-1.));
#1342=DIRECTION('ref_axis',(-1.,0.,0.));
#1343=DIRECTION('center_axis',(0.,0.,1.));
#1344=DIRECTION('ref_axis',(-1.,0.,0.));
#1345=DIRECTION('center_axis',(0.,0.,1.));
#1346=DIRECTION('ref_axis',(-1.,0.,0.));
#1347=DIRECTION('center_axis',(0.,0.,1.));
#1348=DIRECTION('ref_axis',(-1.,0.,0.));
#1349=DIRECTION('',(0.,0.,-1.));
#1350=DIRECTION('center_axis',(0.,0.,-1.));
#1351=DIRECTION('ref_axis',(-1.,0.,0.));
#1352=DIRECTION('center_axis',(0.,0.,1.));
#1353=DIRECTION('ref_axis',(-1.,0.,0.));
#1354=DIRECTION('center_axis',(0.,0.,1.));
#1355=DIRECTION('ref_axis',(-1.,0.,0.));
#1356=DIRECTION('center_axis',(0.,0.,1.));
#1357=DIRECTION('ref_axis',(-1.,0.,0.));
#1358=DIRECTION('',(0.,0.,-1.));
#1359=DIRECTION('center_axis',(0.,0.,-1.));
#1360=DIRECTION('ref_axis',(-1.,0.,0.));
#1361=DIRECTION('center_axis',(0.,0.,1.));
#1362=DIRECTION('ref_axis',(-1.,0.,0.));
#1363=DIRECTION('center_axis',(0.,-1.,0.));
#1364=DIRECTION('ref_axis',(1.,0.,0.));
#1365=DIRECTION('',(-1.,0.,0.));
#1366=DIRECTION('center_axis',(-1.0449157878825E-16,1.,0.));
#1367=DIRECTION('ref_axis',(-1.,-1.0449157878825E-16,0.));
#1368=DIRECTION('',(1.,1.0449157878825E-16,0.));
#1369=DIRECTION('center_axis',(0.,0.,1.));
#1370=DIRECTION('ref_axis',(1.,0.,0.));
#1371=DIRECTION('center_axis',(0.,0.,1.));
#1372=DIRECTION('ref_axis',(1.,0.,0.));
#1373=CARTESIAN_POINT('',(0.,0.,0.));
#1374=CARTESIAN_POINT('Origin',(84.4999999999997,39.5,34.5));
#1375=CARTESIAN_POINT('',(85.,42.1,34.5));
#1376=CARTESIAN_POINT('Origin',(85.,39.5,34.5));
#1377=CARTESIAN_POINT('',(83.9999999999994,41.1,34.5));
#1378=CARTESIAN_POINT('',(84.4999999999997,41.6,34.5));
#1379=CARTESIAN_POINT('Origin',(83.9999999999994,39.5,34.5));
#1380=CARTESIAN_POINT('Origin',(85.,-60.,0.));
#1381=CARTESIAN_POINT('',(85.,60.,0.));
#1382=CARTESIAN_POINT('',(85.,-61.,0.));
#1383=CARTESIAN_POINT('',(85.,60.,0.));
#1384=CARTESIAN_POINT('',(85.,60.,38.));
#1385=CARTESIAN_POINT('',(85.,60.,0.));
#1386=CARTESIAN_POINT('',(85.,-61.,38.));
#1387=CARTESIAN_POINT('',(85.,-61.,38.));
#1388=CARTESIAN_POINT('',(85.,-61.,0.));
#1389=CARTESIAN_POINT('',(85.,-37.9,34.5));
#1390=CARTESIAN_POINT('Origin',(85.,-40.5,34.5));
#1391=CARTESIAN_POINT('Origin',(85.0000000000001,39.5,34.5));
#1392=CARTESIAN_POINT('',(82.0000000000001,41.1,34.5));
#1393=CARTESIAN_POINT('',(85.0000000000001,41.1,34.5));
#1394=CARTESIAN_POINT('Origin',(82.,39.5,34.5));
#1395=CARTESIAN_POINT('Origin',(84.5,-40.5,34.5));
#1396=CARTESIAN_POINT('',(83.9999999999999,-38.9,34.5));
#1397=CARTESIAN_POINT('',(84.5,-38.4,34.5));
#1398=CARTESIAN_POINT('Origin',(83.9999999999999,-40.5,34.5));
#1399=CARTESIAN_POINT('Origin',(85.0000000000003,-40.5,34.5));
#1400=CARTESIAN_POINT('',(82.0000000000003,-38.9,34.5));
#1401=CARTESIAN_POINT('',(85.0000000000003,-38.9,34.5));
#1402=CARTESIAN_POINT('Origin',(82.0000000000001,-40.5,34.5));
#1403=CARTESIAN_POINT('Origin',(-84.5000000000001,39.5,34.5));
#1404=CARTESIAN_POINT('',(-85.,42.1,34.5));
#1405=CARTESIAN_POINT('Origin',(-85.,39.5,34.5));
#1406=CARTESIAN_POINT('',(-84.0000000000001,41.1,34.5));
#1407=CARTESIAN_POINT('',(-84.5000000000001,41.6,34.5));
#1408=CARTESIAN_POINT('Origin',(-84.0000000000001,39.5,34.5));
#1409=CARTESIAN_POINT('Origin',(-85.,60.,0.));
#1410=CARTESIAN_POINT('',(-85.,-61.,0.));
#1411=CARTESIAN_POINT('',(-85.,60.,0.));
#1412=CARTESIAN_POINT('',(-85.,-60.,0.));
#1413=CARTESIAN_POINT('',(-85.,-61.,38.));
#1414=CARTESIAN_POINT('',(-85.,-61.,0.));
#1415=CARTESIAN_POINT('',(-85.,60.,38.));
#1416=CARTESIAN_POINT('',(-85.,60.,38.));
#1417=CARTESIAN_POINT('',(-85.,60.,0.));
#1418=CARTESIAN_POINT('',(-85.,-37.9,34.5));
#1419=CARTESIAN_POINT('Origin',(-85.,-40.5,34.5));
#1420=CARTESIAN_POINT('',(-85.,17.75,9.01));
#1421=CARTESIAN_POINT('',(-85.,30.75,9.01));
#1422=CARTESIAN_POINT('',(-85.,38.875,9.01));
#1423=CARTESIAN_POINT('',(-85.,30.75,21.01));
#1424=CARTESIAN_POINT('',(-85.,30.75,4.50499999999999));
#1425=CARTESIAN_POINT('',(-85.,17.75,21.01));
#1426=CARTESIAN_POINT('',(-85.,45.375,21.01));
#1427=CARTESIAN_POINT('',(-85.,17.75,10.505));
#1428=CARTESIAN_POINT('',(-85.,5.2500000000025,9.803578471901));
#1429=CARTESIAN_POINT('',(-85.,5.2500000000025,19.803578471901));
#1430=CARTESIAN_POINT('',(-85.,5.2500000000025,4.9017892359505));
#1431=CARTESIAN_POINT('',(-85.,-9.7499999999975,19.803578471901));
#1432=CARTESIAN_POINT('',(-85.,32.6250000000012,19.803578471901));
#1433=CARTESIAN_POINT('',(-85.,-9.7499999999975,9.803578471901));
#1434=CARTESIAN_POINT('',(-85.,-9.7499999999975,9.9017892359505));
#1435=CARTESIAN_POINT('',(-85.,25.1250000000012,9.803578471901));
#1436=CARTESIAN_POINT('Origin',(-85.0000000000001,39.5,34.5));
#1437=CARTESIAN_POINT('',(-82.0000000000001,41.1,34.5));
#1438=CARTESIAN_POINT('',(-85.0000000000001,41.1,34.5));
#1439=CARTESIAN_POINT('Origin',(-81.9999999999997,39.5,34.5));
#1440=CARTESIAN_POINT('Origin',(-84.5000000000001,-40.5,34.5));
#1441=CARTESIAN_POINT('',(-84.0000000000003,-38.9,34.5));
#1442=CARTESIAN_POINT('',(-84.5000000000001,-38.4,34.5));
#1443=CARTESIAN_POINT('Origin',(-84.0000000000003,-40.5,34.5));
#1444=CARTESIAN_POINT('Origin',(-85.0000000000003,-40.5,34.5));
#1445=CARTESIAN_POINT('',(-82.0000000000003,-38.9,34.5));
#1446=CARTESIAN_POINT('',(-85.0000000000003,-38.9,34.5));
#1447=CARTESIAN_POINT('Origin',(-82.,-40.5,34.5));
#1448=CARTESIAN_POINT('Origin',(-85.,17.75,9.01));
#1449=CARTESIAN_POINT('',(-82.,17.75,9.01));
#1450=CARTESIAN_POINT('',(-85.,17.75,9.01));
#1451=CARTESIAN_POINT('',(-82.,30.75,9.01));
#1452=CARTESIAN_POINT('',(-82.,-20.125,9.01));
#1453=CARTESIAN_POINT('',(-85.,30.75,9.01));
#1454=CARTESIAN_POINT('Origin',(-85.,17.75,21.01));
#1455=CARTESIAN_POINT('',(-82.,17.75,21.01));
#1456=CARTESIAN_POINT('',(-85.,17.75,21.01));
#1457=CARTESIAN_POINT('',(-82.,17.75,12.005));
#1458=CARTESIAN_POINT('Origin',(-85.,30.75,21.01));
#1459=CARTESIAN_POINT('',(-82.,30.75,21.01));
#1460=CARTESIAN_POINT('',(-85.,30.75,21.01));
#1461=CARTESIAN_POINT('',(-82.,-13.625,21.01));
#1462=CARTESIAN_POINT('Origin',(-85.,30.75,9.01));
#1463=CARTESIAN_POINT('',(-82.,30.75,6.00500000000002));
#1464=CARTESIAN_POINT('Origin',(-74.7499999999982,-61.,32.8165241247172));
#1465=CARTESIAN_POINT('',(-74.7499999999982,-61.,32.8165241247172));
#1466=CARTESIAN_POINT('',(15.7499999999996,-61.,32.8165241247172));
#1467=CARTESIAN_POINT('',(-79.8749999999991,-61.,32.8165241247172));
#1468=CARTESIAN_POINT('',(-74.7499999999982,-60.,32.8165241247172));
#1469=CARTESIAN_POINT('',(-74.7499999999982,-61.,32.8165241247172));
#1470=CARTESIAN_POINT('',(15.7499999999996,-60.,32.8165241247172));
#1471=CARTESIAN_POINT('',(15.7499999999996,-60.,32.8165241247172));
#1472=CARTESIAN_POINT('',(15.7499999999996,-61.,32.8165241247172));
#1473=CARTESIAN_POINT('Origin',(-29.5000000000001,-60.,27.8165241247172));
#1474=CARTESIAN_POINT('',(-74.7499999999998,-60.,22.8165241247172));
#1475=CARTESIAN_POINT('',(-74.7499999999982,-60.,32.8165241247172));
#1476=CARTESIAN_POINT('',(15.7499999999996,-60.,22.8165241247172));
#1477=CARTESIAN_POINT('',(-52.125,-60.,22.8165241247172));
#1478=CARTESIAN_POINT('',(15.7499999999996,-60.,22.8165241247172));
#1479=CARTESIAN_POINT('Origin',(-74.7499999999998,-61.,22.8165241247172));
#1480=CARTESIAN_POINT('',(-74.7499999999998,-58.,22.8165241247172));
#1481=CARTESIAN_POINT('',(-74.7499999999998,-61.,22.8165241247172));
#1482=CARTESIAN_POINT('',(15.7499999999996,-58.,22.8165241247172));
#1483=CARTESIAN_POINT('',(3.62500000000008,-58.,22.8165241247172));
#1484=CARTESIAN_POINT('',(15.7499999999996,-61.,22.8165241247172));
#1485=CARTESIAN_POINT('Origin',(-85.,5.2500000000025,9.803578471901));
#1486=CARTESIAN_POINT('',(-82.,5.2500000000025,9.803578471901));
#1487=CARTESIAN_POINT('',(-85.,5.2500000000025,9.803578471901));
#1488=CARTESIAN_POINT('',(-82.,5.2500000000025,19.803578471901));
#1489=CARTESIAN_POINT('',(-82.,5.2500000000025,6.40178923595049));
#1490=CARTESIAN_POINT('',(-85.,5.2500000000025,19.803578471901));
#1491=CARTESIAN_POINT('Origin',(-85.,-9.7499999999975,9.803578471901));
#1492=CARTESIAN_POINT('',(-82.,-9.7499999999975,9.803578471901));
#1493=CARTESIAN_POINT('',(-85.,-9.7499999999975,9.803578471901));
#1494=CARTESIAN_POINT('',(-82.,-33.8749999999988,9.803578471901));
#1495=CARTESIAN_POINT('Origin',(-85.,-9.7499999999975,19.803578471901));
#1496=CARTESIAN_POINT('',(-82.,-9.7499999999975,19.803578471901));
#1497=CARTESIAN_POINT('',(-85.,-9.7499999999975,19.803578471901));
#1498=CARTESIAN_POINT('',(-82.,-9.7499999999975,11.4017892359505));
#1499=CARTESIAN_POINT('Origin',(-85.,5.2500000000025,19.803578471901));
#1500=CARTESIAN_POINT('',(-82.,-26.3749999999988,19.803578471901));
#1501=CARTESIAN_POINT('Origin',(-67.51403856096,60.,18.945999821412));
#1502=CARTESIAN_POINT('',(-67.51403856096,60.,18.945999821412));
#1503=CARTESIAN_POINT('',(-67.51403856096,60.,8.945999821412));
#1504=CARTESIAN_POINT('',(-67.51403856096,60.,9.472999910706));
#1505=CARTESIAN_POINT('',(-67.51403856096,57.,18.945999821412));
#1506=CARTESIAN_POINT('',(-67.51403856096,60.,18.945999821412));
#1507=CARTESIAN_POINT('',(-67.51403856096,57.,8.945999821412));
#1508=CARTESIAN_POINT('',(-67.51403856096,57.,10.972999910706));
#1509=CARTESIAN_POINT('',(-67.51403856096,60.,8.945999821412));
#1510=CARTESIAN_POINT('Origin',(17.48596143904,60.,18.945999821412));
#1511=CARTESIAN_POINT('',(17.48596143904,60.,18.945999821412));
#1512=CARTESIAN_POINT('',(51.24298071952,60.,18.945999821412));
#1513=CARTESIAN_POINT('',(17.48596143904,57.,18.945999821412));
#1514=CARTESIAN_POINT('',(17.48596143904,60.,18.945999821412));
#1515=CARTESIAN_POINT('',(-32.25701928048,57.,18.945999821412));
#1516=CARTESIAN_POINT('Origin',(17.48596143904,60.,8.945999821412));
#1517=CARTESIAN_POINT('',(17.48596143904,60.,8.945999821412));
#1518=CARTESIAN_POINT('',(17.48596143904,60.,4.472999910706));
#1519=CARTESIAN_POINT('',(17.48596143904,57.,8.945999821412));
#1520=CARTESIAN_POINT('',(17.48596143904,60.,8.945999821412));
#1521=CARTESIAN_POINT('',(17.48596143904,57.,5.972999910706));
#1522=CARTESIAN_POINT('Origin',(-67.51403856096,60.,8.945999821412));
#1523=CARTESIAN_POINT('',(8.74298071952,60.,8.945999821412));
#1524=CARTESIAN_POINT('',(-74.75701928048,57.,8.94599982141201));
#1525=CARTESIAN_POINT('Origin',(44.3749999999998,-61.,27.5));
#1526=CARTESIAN_POINT('',(44.3749999999998,-60.,31.));
#1527=CARTESIAN_POINT('',(40.8749999999998,-60.,27.5));
#1528=CARTESIAN_POINT('Origin',(44.3749999999998,-60.,27.5));
#1529=CARTESIAN_POINT('',(44.3749999999998,-61.,31.));
#1530=CARTESIAN_POINT('',(44.3749999999998,-61.,31.));
#1531=CARTESIAN_POINT('',(40.8749999999998,-61.,27.5));
#1532=CARTESIAN_POINT('Origin',(44.3749999999998,-61.,27.5));
#1533=CARTESIAN_POINT('',(40.8749999999998,-61.,27.5));
#1534=CARTESIAN_POINT('Origin',(40.8749999999998,-61.,6.99999999999998));
#1535=CARTESIAN_POINT('',(40.8749999999998,-61.,10.5));
#1536=CARTESIAN_POINT('',(40.8749999999998,-61.,3.49999999999999));
#1537=CARTESIAN_POINT('',(40.8749999999998,-60.,10.5));
#1538=CARTESIAN_POINT('',(40.8749999999998,-61.,10.5));
#1539=CARTESIAN_POINT('',(40.8749999999998,-60.,6.99999999999998));
#1540=CARTESIAN_POINT('Origin',(56.3749999999998,-61.,27.5));
#1541=CARTESIAN_POINT('',(59.8749999999998,-60.,27.5));
#1542=CARTESIAN_POINT('',(56.3749999999998,-60.,31.));
#1543=CARTESIAN_POINT('Origin',(56.3749999999998,-60.,27.5));
#1544=CARTESIAN_POINT('',(59.8749999999998,-61.,27.5));
#1545=CARTESIAN_POINT('',(59.8749999999998,-61.,27.5));
#1546=CARTESIAN_POINT('',(56.3749999999998,-61.,31.));
#1547=CARTESIAN_POINT('Origin',(56.3749999999998,-61.,27.5));
#1548=CARTESIAN_POINT('',(56.3749999999998,-61.,31.));
#1549=CARTESIAN_POINT('Origin',(40.8749999999998,-61.,31.));
#1550=CARTESIAN_POINT('',(40.8749999999998,-60.,31.));
#1551=CARTESIAN_POINT('',(-22.0625000000001,-61.,31.));
#1552=CARTESIAN_POINT('Origin',(56.3749999999998,-61.,10.5));
#1553=CARTESIAN_POINT('',(56.3749999999998,-60.,6.99999999999998));
#1554=CARTESIAN_POINT('',(59.8749999999998,-60.,10.5));
#1555=CARTESIAN_POINT('Origin',(56.3749999999998,-60.,10.5));
#1556=CARTESIAN_POINT('',(56.3749999999998,-61.,6.99999999999998));
#1557=CARTESIAN_POINT('',(56.3749999999998,-61.,6.99999999999998));
#1558=CARTESIAN_POINT('',(59.8749999999998,-61.,10.5));
#1559=CARTESIAN_POINT('Origin',(56.3749999999998,-61.,10.5));
#1560=CARTESIAN_POINT('',(59.8749999999998,-61.,10.5));
#1561=CARTESIAN_POINT('Origin',(59.8749999999998,-61.,31.));
#1562=CARTESIAN_POINT('',(59.8749999999998,-60.,31.));
#1563=CARTESIAN_POINT('',(59.8749999999998,-61.,15.5));
#1564=CARTESIAN_POINT('Origin',(44.3749999999998,-61.,10.5));
#1565=CARTESIAN_POINT('',(44.3749999999998,-60.,6.99999999999998));
#1566=CARTESIAN_POINT('Origin',(44.3749999999998,-60.,10.5));
#1567=CARTESIAN_POINT('',(44.3749999999998,-61.,6.99999999999998));
#1568=CARTESIAN_POINT('Origin',(44.3749999999998,-61.,10.5));
#1569=CARTESIAN_POINT('',(44.3749999999998,-61.,6.99999999999998));
#1570=CARTESIAN_POINT('Origin',(59.8749999999998,-61.,6.99999999999998));
#1571=CARTESIAN_POINT('',(59.8749999999998,-60.,6.99999999999998));
#1572=CARTESIAN_POINT('',(-12.5625000000001,-61.,6.99999999999998));
#1573=CARTESIAN_POINT('Origin',(50.3749999999998,-60.,19.));
#1574=CARTESIAN_POINT('Origin',(0.,-0.499999999999998,38.));
#1575=CARTESIAN_POINT('',(85.,60.,38.));
#1576=CARTESIAN_POINT('',(-85.,-61.,38.));
#1577=CARTESIAN_POINT('',(81.9999999999999,57.,38.));
#1578=CARTESIAN_POINT('',(82.,-58.,38.));
#1579=CARTESIAN_POINT('',(82.,-58.,38.));
#1580=CARTESIAN_POINT('',(-82.,-58.,38.));
#1581=CARTESIAN_POINT('',(-82.,-58.,38.));
#1582=CARTESIAN_POINT('',(-82.,57.,38.));
#1583=CARTESIAN_POINT('',(-82.,57.,38.));
#1584=CARTESIAN_POINT('',(81.9999999999999,57.,38.));
#1585=CARTESIAN_POINT('Origin',(15.7499999999996,-61.,22.8165241247172));
#1586=CARTESIAN_POINT('',(15.7499999999996,-61.,7.31652412471695));
#1587=CARTESIAN_POINT('',(15.7499999999996,-61.,11.4082620623586));
#1588=CARTESIAN_POINT('',(15.7499999999996,-58.,7.31652412471695));
#1589=CARTESIAN_POINT('',(15.7499999999996,-58.,12.9082620623586));
#1590=CARTESIAN_POINT('',(15.7499999999996,-61.,7.31652412471695));
#1591=CARTESIAN_POINT('Origin',(-74.7499999999998,-61.,7.31652412471695));
#1592=CARTESIAN_POINT('',(-74.7499999999998,-61.,7.31652412471695));
#1593=CARTESIAN_POINT('',(-74.7500000000016,-61.,11.4082620623578));
#1594=CARTESIAN_POINT('',(-74.7499999999998,-58.,7.31652412471695));
#1595=CARTESIAN_POINT('',(-74.7499999999998,-61.,7.31652412471695));
#1596=CARTESIAN_POINT('',(-74.7499999999998,-58.,5.15826206235847));
#1597=CARTESIAN_POINT('Origin',(15.7499999999996,-61.,7.31652412471695));
#1598=CARTESIAN_POINT('',(-34.6250000000002,-61.,7.31652412471695));
#1599=CARTESIAN_POINT('',(48.8749999999998,-58.,7.31652412471695));
#1600=CARTESIAN_POINT('Origin',(-82.,57.,3.));
#1601=CARTESIAN_POINT('',(81.9999999999999,57.,3.));
#1602=CARTESIAN_POINT('',(-82.,57.,3.));
#1603=CARTESIAN_POINT('',(-41.,57.,3.));
#1604=CARTESIAN_POINT('',(81.9999999999999,57.,3.));
#1605=CARTESIAN_POINT('',(-82.,57.,3.));
#1606=CARTESIAN_POINT('Origin',(-82.,-58.,3.));
#1607=CARTESIAN_POINT('',(-82.,-58.,3.));
#1608=CARTESIAN_POINT('',(-82.,-29.,3.));
#1609=CARTESIAN_POINT('',(-82.,-58.,3.));
#1610=CARTESIAN_POINT('Origin',(82.,-58.,3.));
#1611=CARTESIAN_POINT('',(82.,-58.,3.));
#1612=CARTESIAN_POINT('',(41.,-58.,3.));
#1613=CARTESIAN_POINT('',(82.,-58.,3.));
#1614=CARTESIAN_POINT('Origin',(81.9999999999999,57.,3.));
#1615=CARTESIAN_POINT('',(81.9999999999999,28.5,3.));
#1616=CARTESIAN_POINT('Origin',(65.,-40.,3.));
#1617=CARTESIAN_POINT('',(67.5,-40.,8.));
#1618=CARTESIAN_POINT('Origin',(65.,-40.,8.));
#1619=CARTESIAN_POINT('',(67.5,-40.,3.));
#1620=CARTESIAN_POINT('',(67.5,-40.,3.));
#1621=CARTESIAN_POINT('Origin',(65.,-40.,3.));
#1622=CARTESIAN_POINT('Origin',(65.,-40.,8.));
#1623=CARTESIAN_POINT('Origin',(-75.,-40.,3.));
#1624=CARTESIAN_POINT('',(-72.5,-40.,8.));
#1625=CARTESIAN_POINT('Origin',(-75.,-40.,8.));
#1626=CARTESIAN_POINT('',(-72.5,-40.,3.));
#1627=CARTESIAN_POINT('',(-72.5,-40.,3.));
#1628=CARTESIAN_POINT('Origin',(-75.,-40.,3.));
#1629=CARTESIAN_POINT('Origin',(-75.,-40.,8.));
#1630=CARTESIAN_POINT('Origin',(65.,50.,3.));
#1631=CARTESIAN_POINT('',(67.5,50.,8.));
#1632=CARTESIAN_POINT('Origin',(65.,50.,8.));
#1633=CARTESIAN_POINT('',(67.5,50.,3.));
#1634=CARTESIAN_POINT('',(67.5,50.,3.));
#1635=CARTESIAN_POINT('Origin',(65.,50.,3.));
#1636=CARTESIAN_POINT('Origin',(65.,50.,8.));
#1637=CARTESIAN_POINT('Origin',(-75.,50.,3.));
#1638=CARTESIAN_POINT('',(-72.5,50.,8.));
#1639=CARTESIAN_POINT('Origin',(-75.,50.,8.));
#1640=CARTESIAN_POINT('',(-72.5,50.,3.));
#1641=CARTESIAN_POINT('',(-72.5,50.,3.));
#1642=CARTESIAN_POINT('Origin',(-75.,50.,3.));
#1643=CARTESIAN_POINT('Origin',(-75.,50.,8.));
#1644=CARTESIAN_POINT('Origin',(-84.9999999999999,-61.,0.));
#1645=CARTESIAN_POINT('',(-42.5,-61.,0.));
#1646=CARTESIAN_POINT('Origin',(85.,60.,0.));
#1647=CARTESIAN_POINT('',(-85.,60.,0.));
#1648=CARTESIAN_POINT('Origin',(0.,0.,3.));
#1649=CARTESIAN_POINT('Origin',(0.,0.,0.));
#1650=UNCERTAINTY_MEASURE_WITH_UNIT(LENGTH_MEASURE(0.01),#1654,
'DISTANCE_ACCURACY_VALUE',
'Maximum model space distance between geometric entities at asserted c
onnectivities');
#1651=UNCERTAINTY_MEASURE_WITH_UNIT(LENGTH_MEASURE(0.01),#1654,
'DISTANCE_ACCURACY_VALUE',
'Maximum model space distance between geometric entities at asserted c
onnectivities');
#1652=(
GEOMETRIC_REPRESENTATION_CONTEXT(3)
GLOBAL_UNCERTAINTY_ASSIGNED_CONTEXT((#1650))
GLOBAL_UNIT_ASSIGNED_CONTEXT((#1654,#1656,#1657))
REPRESENTATION_CONTEXT('','3D')
);
#1653=(
GEOMETRIC_REPRESENTATION_CONTEXT(3)
GLOBAL_UNCERTAINTY_ASSIGNED_CONTEXT((#1651))
GLOBAL_UNIT_ASSIGNED_CONTEXT((#1654,#1656,#1657))
REPRESENTATION_CONTEXT('','3D')
);
#1654=(
LENGTH_UNIT()
NAMED_UNIT(*)
SI_UNIT(.MILLI.,.METRE.)
);
#1655=(
LENGTH_UNIT()
NAMED_UNIT(*)
SI_UNIT($,.METRE.)
);
#1656=(
NAMED_UNIT(*)
PLANE_ANGLE_UNIT()
SI_UNIT($,.RADIAN.)
);
#1657=(
NAMED_UNIT(*)
SI_UNIT($,.STERADIAN.)
SOLID_ANGLE_UNIT()
);
#1658=SHAPE_DEFINITION_REPRESENTATION(#1659,#1660);
#1659=PRODUCT_DEFINITION_SHAPE('',$,#1662);
#1660=SHAPE_REPRESENTATION('',(#1018),#1652);
#1661=PRODUCT_DEFINITION_CONTEXT('part definition',#1666,'design');
#1662=PRODUCT_DEFINITION('Box','Box',#1663,#1661);
#1663=PRODUCT_DEFINITION_FORMATION('',$,#1668);
#1664=PRODUCT_RELATED_PRODUCT_CATEGORY('Box','Box',(#1668));
#1665=APPLICATION_PROTOCOL_DEFINITION('international standard',
'automotive_design',2009,#1666);
#1666=APPLICATION_CONTEXT(
'Core Data for Automotive Mechanical Design Process');
#1667=PRODUCT_CONTEXT('part definition',#1666,'mechanical');
#1668=PRODUCT('Box','Box',$,(#1667));
#1669=PRESENTATION_STYLE_ASSIGNMENT((#1671));
#1670=PRESENTATION_STYLE_ASSIGNMENT((#1672));
#1671=SURFACE_STYLE_USAGE(.BOTH.,#1673);
#1672=SURFACE_STYLE_USAGE(.BOTH.,#1674);
#1673=SURFACE_SIDE_STYLE('',(#1675));
#1674=SURFACE_SIDE_STYLE('',(#1676));
#1675=SURFACE_STYLE_FILL_AREA(#1677);
#1676=SURFACE_STYLE_FILL_AREA(#1678);
#1677=FILL_AREA_STYLE('Steel - Satin',(#1679));
#1678=FILL_AREA_STYLE('Plastic - Matte (Centurion)',(#1680));
#1679=FILL_AREA_STYLE_COLOUR('Steel - Satin',#1681);
#1680=FILL_AREA_STYLE_COLOUR('Plastic - Matte (Centurion)',#1682);
#1681=COLOUR_RGB('Steel - Satin',0.627450980392157,0.627450980392157,0.627450980392157);
#1682=COLOUR_RGB('Plastic - Matte (Centurion)',0.411764705882353,0.556862745098039,
0.682352941176471);
ENDSEC;
END-ISO-10303-21;
