ISO-10303-21;
HEADER;
/* Generated by software containing ST-Developer
 * from STEP Tools, Inc. (www.steptools.com) 
 */

FILE_DESCRIPTION(
/* description */ (''),
/* implementation_level */ '2;1');

FILE_NAME(
/* name */ 'Button Cap.step',
/* time_stamp */ '2026-03-26T14:30:10-07:00',
/* author */ (''),
/* organization */ (''),
/* preprocessor_version */ 'ST-DEVELOPER v20.1',
/* originating_system */ 'Autodesk Translation Framework v14.24.0.0',
/* authorisation */ '');

FILE_SCHEMA (('AUTOMOTIVE_DESIGN { 1 0 10303 214 3 1 1 }'));
ENDSEC;

DATA;
#10=MECHANICAL_DESIGN_GEOMETRIC_PRESENTATION_REPRESENTATION('',(#13),#1001);
#11=SHAPE_REPRESENTATION_RELATIONSHIP('SRR','None',#1008,#12);
#12=ADVANCED_BREP_SHAPE_REPRESENTATION('',(#14),#1000);
#13=STYLED_ITEM('',(#1018),#14);
#14=MANIFOLD_SOLID_BREP('Body1',#531);
#15=FACE_BOUND('',#186,.T.);
#16=FACE_BOUND('',#209,.T.);
#17=PLANE('',#552);
#18=PLANE('',#553);
#19=PLANE('',#561);
#20=PLANE('',#572);
#21=PLANE('',#573);
#22=PLANE('',#574);
#23=PLANE('',#578);
#24=PLANE('',#579);
#25=PLANE('',#580);
#26=PLANE('',#584);
#27=PLANE('',#585);
#28=PLANE('',#586);
#29=PLANE('',#587);
#30=PLANE('',#588);
#31=PLANE('',#589);
#32=PLANE('',#590);
#33=PLANE('',#591);
#34=PLANE('',#592);
#35=LINE('',#779,#87);
#36=LINE('',#780,#88);
#37=LINE('',#783,#89);
#38=LINE('',#786,#90);
#39=LINE('',#789,#91);
#40=LINE('',#790,#92);
#41=LINE('',#793,#93);
#42=LINE('',#797,#94);
#43=LINE('',#801,#95);
#44=LINE('',#805,#96);
#45=LINE('',#807,#97);
#46=LINE('',#809,#98);
#47=LINE('',#810,#99);
#48=LINE('',#843,#100);
#49=LINE('',#844,#101);
#50=LINE('',#847,#102);
#51=LINE('',#848,#103);
#52=LINE('',#851,#104);
#53=LINE('',#887,#105);
#54=LINE('',#922,#106);
#55=LINE('',#924,#107);
#56=LINE('',#925,#108);
#57=LINE('',#927,#109);
#58=LINE('',#928,#110);
#59=LINE('',#937,#111);
#60=LINE('',#940,#112);
#61=LINE('',#943,#113);
#62=LINE('',#945,#114);
#63=LINE('',#946,#115);
#64=LINE('',#949,#116);
#65=LINE('',#951,#117);
#66=LINE('',#952,#118);
#67=LINE('',#955,#119);
#68=LINE('',#957,#120);
#69=LINE('',#961,#121);
#70=LINE('',#962,#122);
#71=LINE('',#965,#123);
#72=LINE('',#968,#124);
#73=LINE('',#971,#125);
#74=LINE('',#972,#126);
#75=LINE('',#974,#127);
#76=LINE('',#975,#128);
#77=LINE('',#977,#129);
#78=LINE('',#979,#130);
#79=LINE('',#983,#131);
#80=LINE('',#985,#132);
#81=LINE('',#987,#133);
#82=LINE('',#988,#134);
#83=LINE('',#990,#135);
#84=LINE('',#991,#136);
#85=LINE('',#993,#137);
#86=LINE('',#995,#138);
#87=VECTOR('',#605,10.);
#88=VECTOR('',#606,10.);
#89=VECTOR('',#609,10.);
#90=VECTOR('',#612,10.);
#91=VECTOR('',#615,10.);
#92=VECTOR('',#616,10.);
#93=VECTOR('',#619,10.);
#94=VECTOR('',#622,10.);
#95=VECTOR('',#625,10.);
#96=VECTOR('',#628,10.);
#97=VECTOR('',#629,10.);
#98=VECTOR('',#630,10.);
#99=VECTOR('',#631,10.);
#100=VECTOR('',#640,10.);
#101=VECTOR('',#641,10.);
#102=VECTOR('',#644,10.);
#103=VECTOR('',#645,10.);
#104=VECTOR('',#648,10.);
#105=VECTOR('',#657,10.);
#106=VECTOR('',#664,10.);
#107=VECTOR('',#667,10.);
#108=VECTOR('',#668,10.);
#109=VECTOR('',#671,10.);
#110=VECTOR('',#672,10.);
#111=VECTOR('',#683,10.);
#112=VECTOR('',#686,10.);
#113=VECTOR('',#689,10.);
#114=VECTOR('',#690,10.);
#115=VECTOR('',#691,10.);
#116=VECTOR('',#694,10.);
#117=VECTOR('',#695,10.);
#118=VECTOR('',#696,10.);
#119=VECTOR('',#699,10.);
#120=VECTOR('',#700,10.);
#121=VECTOR('',#703,10.);
#122=VECTOR('',#704,10.);
#123=VECTOR('',#707,10.);
#124=VECTOR('',#710,10.);
#125=VECTOR('',#713,10.);
#126=VECTOR('',#714,10.);
#127=VECTOR('',#715,10.);
#128=VECTOR('',#716,10.);
#129=VECTOR('',#719,10.);
#130=VECTOR('',#722,10.);
#131=VECTOR('',#725,10.);
#132=VECTOR('',#726,10.);
#133=VECTOR('',#727,10.);
#134=VECTOR('',#728,10.);
#135=VECTOR('',#731,10.);
#136=VECTOR('',#732,10.);
#137=VECTOR('',#735,10.);
#138=VECTOR('',#738,10.);
#139=CYLINDRICAL_SURFACE('',#548,0.5);
#140=CYLINDRICAL_SURFACE('',#550,1.);
#141=CYLINDRICAL_SURFACE('',#560,0.5);
#142=CYLINDRICAL_SURFACE('',#562,1.);
#143=CYLINDRICAL_SURFACE('',#566,0.5);
#144=CYLINDRICAL_SURFACE('',#569,0.5);
#145=CYLINDRICAL_SURFACE('',#570,1.);
#146=CYLINDRICAL_SURFACE('',#571,1.);
#147=CYLINDRICAL_SURFACE('',#575,1.19999999999997);
#148=CYLINDRICAL_SURFACE('',#582,1.19999999999997);
#149=FACE_OUTER_BOUND('',#181,.T.);
#150=FACE_OUTER_BOUND('',#182,.T.);
#151=FACE_OUTER_BOUND('',#183,.T.);
#152=FACE_OUTER_BOUND('',#184,.T.);
#153=FACE_OUTER_BOUND('',#185,.T.);
#154=FACE_OUTER_BOUND('',#187,.T.);
#155=FACE_OUTER_BOUND('',#188,.T.);
#156=FACE_OUTER_BOUND('',#189,.T.);
#157=FACE_OUTER_BOUND('',#190,.T.);
#158=FACE_OUTER_BOUND('',#191,.T.);
#159=FACE_OUTER_BOUND('',#192,.T.);
#160=FACE_OUTER_BOUND('',#193,.T.);
#161=FACE_OUTER_BOUND('',#194,.T.);
#162=FACE_OUTER_BOUND('',#195,.T.);
#163=FACE_OUTER_BOUND('',#196,.T.);
#164=FACE_OUTER_BOUND('',#197,.T.);
#165=FACE_OUTER_BOUND('',#198,.T.);
#166=FACE_OUTER_BOUND('',#199,.T.);
#167=FACE_OUTER_BOUND('',#200,.T.);
#168=FACE_OUTER_BOUND('',#201,.T.);
#169=FACE_OUTER_BOUND('',#202,.T.);
#170=FACE_OUTER_BOUND('',#203,.T.);
#171=FACE_OUTER_BOUND('',#204,.T.);
#172=FACE_OUTER_BOUND('',#205,.T.);
#173=FACE_OUTER_BOUND('',#206,.T.);
#174=FACE_OUTER_BOUND('',#207,.T.);
#175=FACE_OUTER_BOUND('',#208,.T.);
#176=FACE_OUTER_BOUND('',#210,.T.);
#177=FACE_OUTER_BOUND('',#211,.T.);
#178=FACE_OUTER_BOUND('',#212,.T.);
#179=FACE_OUTER_BOUND('',#213,.T.);
#180=FACE_OUTER_BOUND('',#214,.T.);
#181=EDGE_LOOP('',(#351,#352,#353));
#182=EDGE_LOOP('',(#354,#355,#356,#357));
#183=EDGE_LOOP('',(#358,#359,#360,#361));
#184=EDGE_LOOP('',(#362,#363,#364,#365));
#185=EDGE_LOOP('',(#366,#367,#368,#369,#370,#371,#372,#373));
#186=EDGE_LOOP('',(#374,#375,#376,#377));
#187=EDGE_LOOP('',(#378,#379,#380));
#188=EDGE_LOOP('',(#381,#382,#383,#384));
#189=EDGE_LOOP('',(#385,#386,#387,#388));
#190=EDGE_LOOP('',(#389,#390,#391,#392));
#191=EDGE_LOOP('',(#393,#394,#395));
#192=EDGE_LOOP('',(#396,#397,#398,#399));
#193=EDGE_LOOP('',(#400,#401,#402));
#194=EDGE_LOOP('',(#403,#404,#405,#406));
#195=EDGE_LOOP('',(#407,#408,#409,#410));
#196=EDGE_LOOP('',(#411,#412,#413,#414));
#197=EDGE_LOOP('',(#415,#416,#417,#418));
#198=EDGE_LOOP('',(#419,#420,#421,#422));
#199=EDGE_LOOP('',(#423,#424,#425,#426));
#200=EDGE_LOOP('',(#427,#428,#429,#430));
#201=EDGE_LOOP('',(#431,#432,#433,#434));
#202=EDGE_LOOP('',(#435,#436,#437,#438));
#203=EDGE_LOOP('',(#439,#440,#441,#442,#443,#444,#445,#446));
#204=EDGE_LOOP('',(#447,#448,#449,#450));
#205=EDGE_LOOP('',(#451,#452,#453,#454,#455,#456,#457,#458));
#206=EDGE_LOOP('',(#459,#460,#461,#462));
#207=EDGE_LOOP('',(#463,#464,#465,#466));
#208=EDGE_LOOP('',(#467,#468,#469,#470));
#209=EDGE_LOOP('',(#471,#472,#473,#474));
#210=EDGE_LOOP('',(#475,#476,#477,#478));
#211=EDGE_LOOP('',(#479,#480,#481,#482));
#212=EDGE_LOOP('',(#483,#484,#485,#486));
#213=EDGE_LOOP('',(#487,#488,#489,#490));
#214=EDGE_LOOP('',(#491,#492,#493,#494));
#215=ELLIPSE('',#546,1.11803398874989,0.999999999999996);
#216=ELLIPSE('',#547,1.11803398874989,0.999999999999979);
#217=ELLIPSE('',#551,1.11803398874989,0.999999999999996);
#218=ELLIPSE('',#558,1.11803398874989,0.999999999999996);
#219=ELLIPSE('',#559,1.11803398874989,0.999999999999996);
#220=ELLIPSE('',#563,1.11803398874989,1.00000000000001);
#221=ELLIPSE('',#565,1.11803398874989,1.00000000000001);
#222=ELLIPSE('',#568,1.11803398874989,0.999999999999996);
#223=CIRCLE('',#545,0.500000000000006);
#224=CIRCLE('',#549,0.5);
#225=CIRCLE('',#554,0.5);
#226=CIRCLE('',#555,0.5);
#227=CIRCLE('',#556,0.5);
#228=CIRCLE('',#557,0.499999999999998);
#229=CIRCLE('',#564,0.500000000000003);
#230=CIRCLE('',#567,0.499999999999998);
#231=CIRCLE('',#576,1.19999999999997);
#232=CIRCLE('',#577,1.19999999999997);
#233=CIRCLE('',#581,1.19999999999997);
#234=CIRCLE('',#583,1.19999999999997);
#235=VERTEX_POINT('',#769);
#236=VERTEX_POINT('',#770);
#237=VERTEX_POINT('',#772);
#238=VERTEX_POINT('',#776);
#239=VERTEX_POINT('',#777);
#240=VERTEX_POINT('',#782);
#241=VERTEX_POINT('',#784);
#242=VERTEX_POINT('',#788);
#243=VERTEX_POINT('',#792);
#244=VERTEX_POINT('',#794);
#245=VERTEX_POINT('',#796);
#246=VERTEX_POINT('',#798);
#247=VERTEX_POINT('',#800);
#248=VERTEX_POINT('',#803);
#249=VERTEX_POINT('',#804);
#250=VERTEX_POINT('',#806);
#251=VERTEX_POINT('',#808);
#252=VERTEX_POINT('',#836);
#253=VERTEX_POINT('',#837);
#254=VERTEX_POINT('',#839);
#255=VERTEX_POINT('',#846);
#256=VERTEX_POINT('',#850);
#257=VERTEX_POINT('',#883);
#258=VERTEX_POINT('',#918);
#259=VERTEX_POINT('',#933);
#260=VERTEX_POINT('',#934);
#261=VERTEX_POINT('',#936);
#262=VERTEX_POINT('',#938);
#263=VERTEX_POINT('',#942);
#264=VERTEX_POINT('',#944);
#265=VERTEX_POINT('',#948);
#266=VERTEX_POINT('',#950);
#267=VERTEX_POINT('',#954);
#268=VERTEX_POINT('',#956);
#269=VERTEX_POINT('',#958);
#270=VERTEX_POINT('',#960);
#271=VERTEX_POINT('',#964);
#272=VERTEX_POINT('',#966);
#273=VERTEX_POINT('',#970);
#274=VERTEX_POINT('',#973);
#275=VERTEX_POINT('',#981);
#276=VERTEX_POINT('',#982);
#277=VERTEX_POINT('',#984);
#278=VERTEX_POINT('',#986);
#279=EDGE_CURVE('',#235,#236,#223,.T.);
#280=EDGE_CURVE('',#236,#237,#215,.T.);
#281=EDGE_CURVE('',#237,#235,#216,.T.);
#282=EDGE_CURVE('',#238,#239,#224,.T.);
#283=EDGE_CURVE('',#239,#236,#35,.T.);
#284=EDGE_CURVE('',#235,#238,#36,.T.);
#285=EDGE_CURVE('',#236,#240,#37,.T.);
#286=EDGE_CURVE('',#241,#240,#217,.T.);
#287=EDGE_CURVE('',#241,#237,#38,.T.);
#288=EDGE_CURVE('',#242,#239,#39,.F.);
#289=EDGE_CURVE('',#240,#242,#40,.T.);
#290=EDGE_CURVE('',#238,#243,#41,.F.);
#291=EDGE_CURVE('',#244,#243,#225,.T.);
#292=EDGE_CURVE('',#244,#245,#42,.F.);
#293=EDGE_CURVE('',#246,#245,#226,.T.);
#294=EDGE_CURVE('',#246,#247,#43,.F.);
#295=EDGE_CURVE('',#242,#247,#227,.T.);
#296=EDGE_CURVE('',#248,#249,#44,.T.);
#297=EDGE_CURVE('',#249,#250,#45,.T.);
#298=EDGE_CURVE('',#250,#251,#46,.T.);
#299=EDGE_CURVE('',#251,#248,#47,.T.);
#300=EDGE_CURVE('',#252,#253,#228,.T.);
#301=EDGE_CURVE('',#253,#254,#218,.T.);
#302=EDGE_CURVE('',#254,#252,#219,.T.);
#303=EDGE_CURVE('',#243,#253,#48,.T.);
#304=EDGE_CURVE('',#252,#244,#49,.T.);
#305=EDGE_CURVE('',#255,#252,#50,.T.);
#306=EDGE_CURVE('',#245,#255,#51,.T.);
#307=EDGE_CURVE('',#254,#256,#52,.T.);
#308=EDGE_CURVE('',#255,#256,#220,.T.);
#309=EDGE_CURVE('',#257,#255,#229,.T.);
#310=EDGE_CURVE('',#256,#257,#221,.T.);
#311=EDGE_CURVE('',#257,#246,#53,.T.);
#312=EDGE_CURVE('',#240,#258,#230,.T.);
#313=EDGE_CURVE('',#258,#241,#222,.T.);
#314=EDGE_CURVE('',#247,#258,#54,.T.);
#315=EDGE_CURVE('',#256,#241,#55,.T.);
#316=EDGE_CURVE('',#258,#257,#56,.T.);
#317=EDGE_CURVE('',#237,#254,#57,.T.);
#318=EDGE_CURVE('',#253,#235,#58,.T.);
#319=EDGE_CURVE('',#259,#260,#231,.T.);
#320=EDGE_CURVE('',#261,#259,#59,.T.);
#321=EDGE_CURVE('',#262,#261,#232,.T.);
#322=EDGE_CURVE('',#260,#262,#60,.T.);
#323=EDGE_CURVE('',#262,#263,#61,.T.);
#324=EDGE_CURVE('',#264,#263,#62,.T.);
#325=EDGE_CURVE('',#260,#264,#63,.T.);
#326=EDGE_CURVE('',#265,#259,#64,.T.);
#327=EDGE_CURVE('',#266,#265,#65,.T.);
#328=EDGE_CURVE('',#266,#261,#66,.T.);
#329=EDGE_CURVE('',#267,#264,#67,.T.);
#330=EDGE_CURVE('',#268,#267,#68,.T.);
#331=EDGE_CURVE('',#268,#269,#233,.T.);
#332=EDGE_CURVE('',#270,#269,#69,.T.);
#333=EDGE_CURVE('',#265,#270,#70,.T.);
#334=EDGE_CURVE('',#271,#268,#71,.T.);
#335=EDGE_CURVE('',#272,#271,#234,.T.);
#336=EDGE_CURVE('',#269,#272,#72,.T.);
#337=EDGE_CURVE('',#273,#266,#73,.T.);
#338=EDGE_CURVE('',#273,#272,#74,.T.);
#339=EDGE_CURVE('',#271,#274,#75,.T.);
#340=EDGE_CURVE('',#263,#274,#76,.T.);
#341=EDGE_CURVE('',#274,#267,#77,.T.);
#342=EDGE_CURVE('',#270,#273,#78,.T.);
#343=EDGE_CURVE('',#275,#276,#79,.T.);
#344=EDGE_CURVE('',#276,#277,#80,.T.);
#345=EDGE_CURVE('',#277,#278,#81,.T.);
#346=EDGE_CURVE('',#278,#275,#82,.T.);
#347=EDGE_CURVE('',#249,#277,#83,.T.);
#348=EDGE_CURVE('',#278,#248,#84,.T.);
#349=EDGE_CURVE('',#275,#251,#85,.T.);
#350=EDGE_CURVE('',#276,#250,#86,.T.);
#351=ORIENTED_EDGE('',*,*,#279,.T.);
#352=ORIENTED_EDGE('',*,*,#280,.T.);
#353=ORIENTED_EDGE('',*,*,#281,.T.);
#354=ORIENTED_EDGE('',*,*,#282,.T.);
#355=ORIENTED_EDGE('',*,*,#283,.T.);
#356=ORIENTED_EDGE('',*,*,#279,.F.);
#357=ORIENTED_EDGE('',*,*,#284,.T.);
#358=ORIENTED_EDGE('',*,*,#280,.F.);
#359=ORIENTED_EDGE('',*,*,#285,.T.);
#360=ORIENTED_EDGE('',*,*,#286,.F.);
#361=ORIENTED_EDGE('',*,*,#287,.T.);
#362=ORIENTED_EDGE('',*,*,#283,.F.);
#363=ORIENTED_EDGE('',*,*,#288,.F.);
#364=ORIENTED_EDGE('',*,*,#289,.F.);
#365=ORIENTED_EDGE('',*,*,#285,.F.);
#366=ORIENTED_EDGE('',*,*,#282,.F.);
#367=ORIENTED_EDGE('',*,*,#290,.T.);
#368=ORIENTED_EDGE('',*,*,#291,.F.);
#369=ORIENTED_EDGE('',*,*,#292,.T.);
#370=ORIENTED_EDGE('',*,*,#293,.F.);
#371=ORIENTED_EDGE('',*,*,#294,.T.);
#372=ORIENTED_EDGE('',*,*,#295,.F.);
#373=ORIENTED_EDGE('',*,*,#288,.T.);
#374=ORIENTED_EDGE('',*,*,#296,.T.);
#375=ORIENTED_EDGE('',*,*,#297,.T.);
#376=ORIENTED_EDGE('',*,*,#298,.T.);
#377=ORIENTED_EDGE('',*,*,#299,.T.);
#378=ORIENTED_EDGE('',*,*,#300,.T.);
#379=ORIENTED_EDGE('',*,*,#301,.T.);
#380=ORIENTED_EDGE('',*,*,#302,.T.);
#381=ORIENTED_EDGE('',*,*,#291,.T.);
#382=ORIENTED_EDGE('',*,*,#303,.T.);
#383=ORIENTED_EDGE('',*,*,#300,.F.);
#384=ORIENTED_EDGE('',*,*,#304,.T.);
#385=ORIENTED_EDGE('',*,*,#304,.F.);
#386=ORIENTED_EDGE('',*,*,#305,.F.);
#387=ORIENTED_EDGE('',*,*,#306,.F.);
#388=ORIENTED_EDGE('',*,*,#292,.F.);
#389=ORIENTED_EDGE('',*,*,#302,.F.);
#390=ORIENTED_EDGE('',*,*,#307,.T.);
#391=ORIENTED_EDGE('',*,*,#308,.F.);
#392=ORIENTED_EDGE('',*,*,#305,.T.);
#393=ORIENTED_EDGE('',*,*,#309,.T.);
#394=ORIENTED_EDGE('',*,*,#308,.T.);
#395=ORIENTED_EDGE('',*,*,#310,.T.);
#396=ORIENTED_EDGE('',*,*,#293,.T.);
#397=ORIENTED_EDGE('',*,*,#306,.T.);
#398=ORIENTED_EDGE('',*,*,#309,.F.);
#399=ORIENTED_EDGE('',*,*,#311,.T.);
#400=ORIENTED_EDGE('',*,*,#312,.T.);
#401=ORIENTED_EDGE('',*,*,#313,.T.);
#402=ORIENTED_EDGE('',*,*,#286,.T.);
#403=ORIENTED_EDGE('',*,*,#295,.T.);
#404=ORIENTED_EDGE('',*,*,#314,.T.);
#405=ORIENTED_EDGE('',*,*,#312,.F.);
#406=ORIENTED_EDGE('',*,*,#289,.T.);
#407=ORIENTED_EDGE('',*,*,#310,.F.);
#408=ORIENTED_EDGE('',*,*,#315,.T.);
#409=ORIENTED_EDGE('',*,*,#313,.F.);
#410=ORIENTED_EDGE('',*,*,#316,.T.);
#411=ORIENTED_EDGE('',*,*,#281,.F.);
#412=ORIENTED_EDGE('',*,*,#317,.T.);
#413=ORIENTED_EDGE('',*,*,#301,.F.);
#414=ORIENTED_EDGE('',*,*,#318,.T.);
#415=ORIENTED_EDGE('',*,*,#284,.F.);
#416=ORIENTED_EDGE('',*,*,#318,.F.);
#417=ORIENTED_EDGE('',*,*,#303,.F.);
#418=ORIENTED_EDGE('',*,*,#290,.F.);
#419=ORIENTED_EDGE('',*,*,#317,.F.);
#420=ORIENTED_EDGE('',*,*,#287,.F.);
#421=ORIENTED_EDGE('',*,*,#315,.F.);
#422=ORIENTED_EDGE('',*,*,#307,.F.);
#423=ORIENTED_EDGE('',*,*,#311,.F.);
#424=ORIENTED_EDGE('',*,*,#316,.F.);
#425=ORIENTED_EDGE('',*,*,#314,.F.);
#426=ORIENTED_EDGE('',*,*,#294,.F.);
#427=ORIENTED_EDGE('',*,*,#319,.F.);
#428=ORIENTED_EDGE('',*,*,#320,.F.);
#429=ORIENTED_EDGE('',*,*,#321,.F.);
#430=ORIENTED_EDGE('',*,*,#322,.F.);
#431=ORIENTED_EDGE('',*,*,#322,.T.);
#432=ORIENTED_EDGE('',*,*,#323,.T.);
#433=ORIENTED_EDGE('',*,*,#324,.F.);
#434=ORIENTED_EDGE('',*,*,#325,.F.);
#435=ORIENTED_EDGE('',*,*,#320,.T.);
#436=ORIENTED_EDGE('',*,*,#326,.F.);
#437=ORIENTED_EDGE('',*,*,#327,.F.);
#438=ORIENTED_EDGE('',*,*,#328,.T.);
#439=ORIENTED_EDGE('',*,*,#319,.T.);
#440=ORIENTED_EDGE('',*,*,#325,.T.);
#441=ORIENTED_EDGE('',*,*,#329,.F.);
#442=ORIENTED_EDGE('',*,*,#330,.F.);
#443=ORIENTED_EDGE('',*,*,#331,.T.);
#444=ORIENTED_EDGE('',*,*,#332,.F.);
#445=ORIENTED_EDGE('',*,*,#333,.F.);
#446=ORIENTED_EDGE('',*,*,#326,.T.);
#447=ORIENTED_EDGE('',*,*,#331,.F.);
#448=ORIENTED_EDGE('',*,*,#334,.F.);
#449=ORIENTED_EDGE('',*,*,#335,.F.);
#450=ORIENTED_EDGE('',*,*,#336,.F.);
#451=ORIENTED_EDGE('',*,*,#321,.T.);
#452=ORIENTED_EDGE('',*,*,#328,.F.);
#453=ORIENTED_EDGE('',*,*,#337,.F.);
#454=ORIENTED_EDGE('',*,*,#338,.T.);
#455=ORIENTED_EDGE('',*,*,#335,.T.);
#456=ORIENTED_EDGE('',*,*,#339,.T.);
#457=ORIENTED_EDGE('',*,*,#340,.F.);
#458=ORIENTED_EDGE('',*,*,#323,.F.);
#459=ORIENTED_EDGE('',*,*,#334,.T.);
#460=ORIENTED_EDGE('',*,*,#330,.T.);
#461=ORIENTED_EDGE('',*,*,#341,.F.);
#462=ORIENTED_EDGE('',*,*,#339,.F.);
#463=ORIENTED_EDGE('',*,*,#336,.T.);
#464=ORIENTED_EDGE('',*,*,#338,.F.);
#465=ORIENTED_EDGE('',*,*,#342,.F.);
#466=ORIENTED_EDGE('',*,*,#332,.T.);
#467=ORIENTED_EDGE('',*,*,#343,.T.);
#468=ORIENTED_EDGE('',*,*,#344,.T.);
#469=ORIENTED_EDGE('',*,*,#345,.T.);
#470=ORIENTED_EDGE('',*,*,#346,.T.);
#471=ORIENTED_EDGE('',*,*,#329,.T.);
#472=ORIENTED_EDGE('',*,*,#324,.T.);
#473=ORIENTED_EDGE('',*,*,#340,.T.);
#474=ORIENTED_EDGE('',*,*,#341,.T.);
#475=ORIENTED_EDGE('',*,*,#347,.F.);
#476=ORIENTED_EDGE('',*,*,#296,.F.);
#477=ORIENTED_EDGE('',*,*,#348,.F.);
#478=ORIENTED_EDGE('',*,*,#345,.F.);
#479=ORIENTED_EDGE('',*,*,#348,.T.);
#480=ORIENTED_EDGE('',*,*,#299,.F.);
#481=ORIENTED_EDGE('',*,*,#349,.F.);
#482=ORIENTED_EDGE('',*,*,#346,.F.);
#483=ORIENTED_EDGE('',*,*,#349,.T.);
#484=ORIENTED_EDGE('',*,*,#298,.F.);
#485=ORIENTED_EDGE('',*,*,#350,.F.);
#486=ORIENTED_EDGE('',*,*,#343,.F.);
#487=ORIENTED_EDGE('',*,*,#350,.T.);
#488=ORIENTED_EDGE('',*,*,#297,.F.);
#489=ORIENTED_EDGE('',*,*,#347,.T.);
#490=ORIENTED_EDGE('',*,*,#344,.F.);
#491=ORIENTED_EDGE('',*,*,#342,.T.);
#492=ORIENTED_EDGE('',*,*,#337,.T.);
#493=ORIENTED_EDGE('',*,*,#327,.T.);
#494=ORIENTED_EDGE('',*,*,#333,.T.);
#495=B_SPLINE_SURFACE_WITH_KNOTS('',3,3,((#744,#745,#746,#747,#748),(#749,
#750,#751,#752,#753),(#754,#755,#756,#757,#758),(#759,#760,#761,#762,#763),
(#764,#765,#766,#767,#768)),.UNSPECIFIED.,.F.,.F.,.F.,(4,1,4),(4,1,4),(0.,
0.5,1.),(-1.5707963267949,-0.673198425769245,-5.54551497905899E-15),
 .UNSPECIFIED.);
#496=B_SPLINE_SURFACE_WITH_KNOTS('',3,3,((#811,#812,#813,#814,#815),(#816,
#817,#818,#819,#820),(#821,#822,#823,#824,#825),(#826,#827,#828,#829,#830),
(#831,#832,#833,#834,#835)),.UNSPECIFIED.,.F.,.F.,.F.,(4,1,4),(4,1,4),(0.,
0.5,1.),(-1.5707963267949,-0.67319842576924,2.22044604925032E-15),
 .UNSPECIFIED.);
#497=B_SPLINE_SURFACE_WITH_KNOTS('',3,3,((#853,#854,#855,#856,#857,#858),
(#859,#860,#861,#862,#863,#864),(#865,#866,#867,#868,#869,#870),(#871,#872,
#873,#874,#875,#876),(#877,#878,#879,#880,#881,#882)),.UNSPECIFIED.,.F.,
 .F.,.F.,(4,1,4),(4,1,1,4),(0.,0.5,1.),(-1.5707963267949,-0.89759790102565,
-0.448798950512816,1.77635683940025E-14),.UNSPECIFIED.);
#498=B_SPLINE_SURFACE_WITH_KNOTS('',3,3,((#888,#889,#890,#891,#892,#893),
(#894,#895,#896,#897,#898,#899),(#900,#901,#902,#903,#904,#905),(#906,#907,
#908,#909,#910,#911),(#912,#913,#914,#915,#916,#917)),.UNSPECIFIED.,.F.,
 .F.,.F.,(4,1,4),(4,1,1,4),(0.,0.5,1.),(-1.5707963267949,-0.897597901025655,
-0.448798950512828,7.54552791085351E-31),.UNSPECIFIED.);
#499=ADVANCED_FACE('',(#149),#495,.F.);
#500=ADVANCED_FACE('',(#150),#139,.T.);
#501=ADVANCED_FACE('',(#151),#140,.T.);
#502=ADVANCED_FACE('',(#152),#17,.T.);
#503=ADVANCED_FACE('',(#153,#15),#18,.F.);
#504=ADVANCED_FACE('',(#154),#496,.F.);
#505=ADVANCED_FACE('',(#155),#141,.T.);
#506=ADVANCED_FACE('',(#156),#19,.T.);
#507=ADVANCED_FACE('',(#157),#142,.T.);
#508=ADVANCED_FACE('',(#158),#497,.F.);
#509=ADVANCED_FACE('',(#159),#143,.T.);
#510=ADVANCED_FACE('',(#160),#498,.F.);
#511=ADVANCED_FACE('',(#161),#144,.T.);
#512=ADVANCED_FACE('',(#162),#145,.T.);
#513=ADVANCED_FACE('',(#163),#146,.T.);
#514=ADVANCED_FACE('',(#164),#20,.T.);
#515=ADVANCED_FACE('',(#165),#21,.T.);
#516=ADVANCED_FACE('',(#166),#22,.T.);
#517=ADVANCED_FACE('',(#167),#147,.T.);
#518=ADVANCED_FACE('',(#168),#23,.T.);
#519=ADVANCED_FACE('',(#169),#24,.T.);
#520=ADVANCED_FACE('',(#170),#25,.T.);
#521=ADVANCED_FACE('',(#171),#148,.T.);
#522=ADVANCED_FACE('',(#172),#26,.T.);
#523=ADVANCED_FACE('',(#173),#27,.T.);
#524=ADVANCED_FACE('',(#174),#28,.T.);
#525=ADVANCED_FACE('',(#175,#16),#29,.T.);
#526=ADVANCED_FACE('',(#176),#30,.T.);
#527=ADVANCED_FACE('',(#177),#31,.T.);
#528=ADVANCED_FACE('',(#178),#32,.T.);
#529=ADVANCED_FACE('',(#179),#33,.T.);
#530=ADVANCED_FACE('',(#180),#34,.F.);
#531=CLOSED_SHELL('',(#499,#500,#501,#502,#503,#504,#505,#506,#507,#508,
#509,#510,#511,#512,#513,#514,#515,#516,#517,#518,#519,#520,#521,#522,#523,
#524,#525,#526,#527,#528,#529,#530));
#532=DERIVED_UNIT_ELEMENT(#534,1.);
#533=DERIVED_UNIT_ELEMENT(#1003,-3.);
#534=(
MASS_UNIT()
NAMED_UNIT(*)
SI_UNIT(.KILO.,.GRAM.)
);
#535=DERIVED_UNIT((#532,#533));
#536=MEASURE_REPRESENTATION_ITEM('density measure',
POSITIVE_RATIO_MEASURE(7850.),#535);
#537=PROPERTY_DEFINITION_REPRESENTATION(#542,#539);
#538=PROPERTY_DEFINITION_REPRESENTATION(#543,#540);
#539=REPRESENTATION('material name',(#541),#1000);
#540=REPRESENTATION('density',(#536),#1000);
#541=DESCRIPTIVE_REPRESENTATION_ITEM('Steel','Steel');
#542=PROPERTY_DEFINITION('material property','material name',#1010);
#543=PROPERTY_DEFINITION('material property','density of part',#1010);
#544=AXIS2_PLACEMENT_3D('',#743,#593,#594);
#545=AXIS2_PLACEMENT_3D('',#771,#595,#596);
#546=AXIS2_PLACEMENT_3D('',#773,#597,#598);
#547=AXIS2_PLACEMENT_3D('',#774,#599,#600);
#548=AXIS2_PLACEMENT_3D('',#775,#601,#602);
#549=AXIS2_PLACEMENT_3D('',#778,#603,#604);
#550=AXIS2_PLACEMENT_3D('',#781,#607,#608);
#551=AXIS2_PLACEMENT_3D('',#785,#610,#611);
#552=AXIS2_PLACEMENT_3D('',#787,#613,#614);
#553=AXIS2_PLACEMENT_3D('',#791,#617,#618);
#554=AXIS2_PLACEMENT_3D('',#795,#620,#621);
#555=AXIS2_PLACEMENT_3D('',#799,#623,#624);
#556=AXIS2_PLACEMENT_3D('',#802,#626,#627);
#557=AXIS2_PLACEMENT_3D('',#838,#632,#633);
#558=AXIS2_PLACEMENT_3D('',#840,#634,#635);
#559=AXIS2_PLACEMENT_3D('',#841,#636,#637);
#560=AXIS2_PLACEMENT_3D('',#842,#638,#639);
#561=AXIS2_PLACEMENT_3D('',#845,#642,#643);
#562=AXIS2_PLACEMENT_3D('',#849,#646,#647);
#563=AXIS2_PLACEMENT_3D('',#852,#649,#650);
#564=AXIS2_PLACEMENT_3D('',#884,#651,#652);
#565=AXIS2_PLACEMENT_3D('',#885,#653,#654);
#566=AXIS2_PLACEMENT_3D('',#886,#655,#656);
#567=AXIS2_PLACEMENT_3D('',#919,#658,#659);
#568=AXIS2_PLACEMENT_3D('',#920,#660,#661);
#569=AXIS2_PLACEMENT_3D('',#921,#662,#663);
#570=AXIS2_PLACEMENT_3D('',#923,#665,#666);
#571=AXIS2_PLACEMENT_3D('',#926,#669,#670);
#572=AXIS2_PLACEMENT_3D('',#929,#673,#674);
#573=AXIS2_PLACEMENT_3D('',#930,#675,#676);
#574=AXIS2_PLACEMENT_3D('',#931,#677,#678);
#575=AXIS2_PLACEMENT_3D('',#932,#679,#680);
#576=AXIS2_PLACEMENT_3D('',#935,#681,#682);
#577=AXIS2_PLACEMENT_3D('',#939,#684,#685);
#578=AXIS2_PLACEMENT_3D('',#941,#687,#688);
#579=AXIS2_PLACEMENT_3D('',#947,#692,#693);
#580=AXIS2_PLACEMENT_3D('',#953,#697,#698);
#581=AXIS2_PLACEMENT_3D('',#959,#701,#702);
#582=AXIS2_PLACEMENT_3D('',#963,#705,#706);
#583=AXIS2_PLACEMENT_3D('',#967,#708,#709);
#584=AXIS2_PLACEMENT_3D('',#969,#711,#712);
#585=AXIS2_PLACEMENT_3D('',#976,#717,#718);
#586=AXIS2_PLACEMENT_3D('',#978,#720,#721);
#587=AXIS2_PLACEMENT_3D('',#980,#723,#724);
#588=AXIS2_PLACEMENT_3D('',#989,#729,#730);
#589=AXIS2_PLACEMENT_3D('',#992,#733,#734);
#590=AXIS2_PLACEMENT_3D('',#994,#736,#737);
#591=AXIS2_PLACEMENT_3D('',#996,#739,#740);
#592=AXIS2_PLACEMENT_3D('',#997,#741,#742);
#593=DIRECTION('axis',(0.,0.,1.));
#594=DIRECTION('refdir',(1.,0.,0.));
#595=DIRECTION('center_axis',(0.,-1.,0.));
#596=DIRECTION('ref_axis',(0.,0.,-1.));
#597=DIRECTION('center_axis',(-0.447213595499955,-3.97205464519566E-15,
-0.894427190999918));
#598=DIRECTION('ref_axis',(0.894427190999917,7.94410929039132E-15,-0.447213595499955));
#599=DIRECTION('center_axis',(0.894427190999917,1.98602732259786E-15,0.447213595499957));
#600=DIRECTION('ref_axis',(0.447213595499957,0.,-0.894427190999917));
#601=DIRECTION('center_axis',(0.,-1.,4.44089209850062E-15));
#602=DIRECTION('ref_axis',(0.707106781186552,0.,-0.707106781186543));
#603=DIRECTION('center_axis',(0.,-1.,3.33066907387548E-15));
#604=DIRECTION('ref_axis',(0.707106781186552,0.,-0.707106781186543));
#605=DIRECTION('',(0.,-1.,4.44089209850062E-15));
#606=DIRECTION('',(0.,1.,-4.44089209850062E-15));
#607=DIRECTION('center_axis',(0.,4.44089209850062E-15,1.));
#608=DIRECTION('ref_axis',(0.707106781186548,-0.707106781186548,3.14018491736756E-15));
#609=DIRECTION('',(0.,4.44089209850062E-15,1.));
#610=DIRECTION('center_axis',(-0.447213595499958,3.97205464519565E-15,0.894427190999916));
#611=DIRECTION('ref_axis',(0.894427190999916,0.,0.447213595499958));
#612=DIRECTION('',(0.,-4.44089209850062E-15,-1.));
#613=DIRECTION('center_axis',(1.,0.,0.));
#614=DIRECTION('ref_axis',(0.,3.33066907387548E-15,1.));
#615=DIRECTION('',(0.,3.33066907387548E-15,1.));
#616=DIRECTION('',(0.,1.,-4.44089209850062E-15));
#617=DIRECTION('center_axis',(0.,-1.,3.33066907387548E-15));
#618=DIRECTION('ref_axis',(1.,0.,0.));
#619=DIRECTION('',(1.,0.,0.));
#620=DIRECTION('center_axis',(0.,-1.,3.33066907387548E-15));
#621=DIRECTION('ref_axis',(-0.707106781186552,0.,-0.707106781186543));
#622=DIRECTION('',(0.,-3.33066907387548E-15,-1.));
#623=DIRECTION('center_axis',(0.,-1.,3.33066907387548E-15));
#624=DIRECTION('ref_axis',(-0.707106781186541,0.,0.707106781186554));
#625=DIRECTION('',(-1.,0.,0.));
#626=DIRECTION('center_axis',(0.,-1.,3.33066907387548E-15));
#627=DIRECTION('ref_axis',(0.707106781186554,0.,0.707106781186541));
#628=DIRECTION('',(-3.55271367880049E-15,3.33066907387548E-15,1.));
#629=DIRECTION('',(-1.,-8.87468518373631E-30,-2.66453525910034E-15));
#630=DIRECTION('',(-6.11971424361953E-31,-3.33066907387548E-15,-1.));
#631=DIRECTION('',(1.,-1.47911419728939E-30,-4.44089209850059E-16));
#632=DIRECTION('center_axis',(0.,-1.,0.));
#633=DIRECTION('ref_axis',(-1.,0.,2.22044604925032E-15));
#634=DIRECTION('center_axis',(-0.894427190999917,1.98602732259782E-15,0.447213595499957));
#635=DIRECTION('ref_axis',(-0.447213595499957,0.,-0.894427190999917));
#636=DIRECTION('center_axis',(0.44721359549996,-4.96506830649456E-15,-0.894427190999915));
#637=DIRECTION('ref_axis',(-0.894427190999915,0.,-0.44721359549996));
#638=DIRECTION('center_axis',(0.,-1.,4.44089209850062E-15));
#639=DIRECTION('ref_axis',(-0.707106781186552,0.,-0.707106781186543));
#640=DIRECTION('',(0.,-1.,4.44089209850062E-15));
#641=DIRECTION('',(0.,1.,-4.44089209850062E-15));
#642=DIRECTION('center_axis',(-1.,0.,0.));
#643=DIRECTION('ref_axis',(0.,-3.33066907387548E-15,-1.));
#644=DIRECTION('',(0.,-4.44089209850062E-15,-1.));
#645=DIRECTION('',(0.,-1.,4.44089209850062E-15));
#646=DIRECTION('center_axis',(0.,-4.44089209850062E-15,-1.));
#647=DIRECTION('ref_axis',(-0.707106781186554,-0.707106781186541,3.14018491736759E-15));
#648=DIRECTION('',(0.,4.44089209850062E-15,1.));
#649=DIRECTION('center_axis',(0.447213595499958,3.97205464519562E-15,0.894427190999916));
#650=DIRECTION('ref_axis',(-0.894427190999916,0.,0.447213595499958));
#651=DIRECTION('center_axis',(0.,-1.,0.));
#652=DIRECTION('ref_axis',(0.,0.,1.));
#653=DIRECTION('center_axis',(-0.894427190999917,0.,-0.447213595499956));
#654=DIRECTION('ref_axis',(-0.447213595499956,0.,0.894427190999917));
#655=DIRECTION('center_axis',(0.,-1.,4.44089209850062E-15));
#656=DIRECTION('ref_axis',(-0.707106781186541,0.,0.707106781186554));
#657=DIRECTION('',(0.,1.,-4.44089209850062E-15));
#658=DIRECTION('center_axis',(0.,-1.,0.));
#659=DIRECTION('ref_axis',(1.,0.,0.));
#660=DIRECTION('center_axis',(0.894427190999917,0.,-0.447213595499956));
#661=DIRECTION('ref_axis',(0.447213595499956,0.,0.894427190999917));
#662=DIRECTION('center_axis',(0.,-1.,4.44089209850062E-15));
#663=DIRECTION('ref_axis',(0.707106781186554,0.,0.707106781186541));
#664=DIRECTION('',(0.,-1.,4.44089209850062E-15));
#665=DIRECTION('center_axis',(-1.,0.,0.));
#666=DIRECTION('ref_axis',(0.,-0.707106781186544,0.707106781186551));
#667=DIRECTION('',(1.,0.,0.));
#668=DIRECTION('',(-1.,0.,0.));
#669=DIRECTION('center_axis',(1.,0.,0.));
#670=DIRECTION('ref_axis',(0.,-0.707106781186548,-0.707106781186547));
#671=DIRECTION('',(-1.,0.,0.));
#672=DIRECTION('',(1.,0.,0.));
#673=DIRECTION('center_axis',(0.,-4.44089209850062E-15,-1.));
#674=DIRECTION('ref_axis',(1.,0.,0.));
#675=DIRECTION('center_axis',(0.,-1.,4.44089209850062E-15));
#676=DIRECTION('ref_axis',(0.,-4.44089209850062E-15,-1.));
#677=DIRECTION('center_axis',(0.,4.44089209850062E-15,1.));
#678=DIRECTION('ref_axis',(-1.,0.,0.));
#679=DIRECTION('center_axis',(1.22394284872391E-30,2.61228946970625E-15,
1.));
#680=DIRECTION('ref_axis',(0.866025403784424,-0.500000000000026,1.30614473485319E-15));
#681=DIRECTION('center_axis',(-2.05172504200748E-29,3.10862446895044E-15,
1.));
#682=DIRECTION('ref_axis',(0.866025403784424,-0.500000000000026,1.30614473485319E-15));
#683=DIRECTION('',(1.22394284872391E-30,2.61228946970625E-15,1.));
#684=DIRECTION('center_axis',(2.05172504200748E-29,-3.10862446895044E-15,
-1.));
#685=DIRECTION('ref_axis',(0.866025403784424,-0.500000000000026,1.30614473485319E-15));
#686=DIRECTION('',(-1.22394284872391E-30,-2.61228946970625E-15,-1.));
#687=DIRECTION('center_axis',(1.,7.105427357601E-15,-1.46515822556458E-30));
#688=DIRECTION('ref_axis',(1.91367246708867E-29,-2.89945725423714E-15,-1.));
#689=DIRECTION('',(-7.105427357601E-15,1.,-3.10862446895044E-15));
#690=DIRECTION('',(1.91367246708867E-29,-2.89945725423714E-15,-1.));
#691=DIRECTION('',(-7.105427357601E-15,1.,-3.10862446895044E-15));
#692=DIRECTION('center_axis',(1.,7.105427357601E-15,-1.46515822556458E-30));
#693=DIRECTION('ref_axis',(1.91367246708867E-29,-2.89945725423714E-15,-1.));
#694=DIRECTION('',(-7.105427357601E-15,1.,-3.10862446895044E-15));
#695=DIRECTION('',(-2.37783907415078E-29,3.5527136788005E-15,1.));
#696=DIRECTION('',(-7.105427357601E-15,1.,-3.10862446895044E-15));
#697=DIRECTION('center_axis',(2.05172504200748E-29,-3.10862446895044E-15,
-1.));
#698=DIRECTION('ref_axis',(-1.,-6.60010581046542E-15,0.));
#699=DIRECTION('',(-1.,-6.60010581046542E-15,0.));
#700=DIRECTION('',(-7.105427357601E-15,1.,-3.10862446895044E-15));
#701=DIRECTION('center_axis',(-2.05172504200748E-29,3.10862446895044E-15,
1.));
#702=DIRECTION('ref_axis',(-0.866025403784424,-0.500000000000026,1.30614473485319E-15));
#703=DIRECTION('',(-7.105427357601E-15,1.,-3.10862446895044E-15));
#704=DIRECTION('',(1.,-1.72254642419866E-16,2.10527254163915E-29));
#705=DIRECTION('center_axis',(0.,-2.61228946970625E-15,-1.));
#706=DIRECTION('ref_axis',(-0.866025403784424,-0.500000000000026,1.30614473485319E-15));
#707=DIRECTION('',(0.,2.61228946970625E-15,1.));
#708=DIRECTION('center_axis',(2.05172504200748E-29,-3.10862446895044E-15,
-1.));
#709=DIRECTION('ref_axis',(-0.866025403784424,-0.500000000000026,1.30614473485319E-15));
#710=DIRECTION('',(0.,-2.61228946970625E-15,-1.));
#711=DIRECTION('center_axis',(-2.05172504200748E-29,3.10862446895044E-15,
1.));
#712=DIRECTION('ref_axis',(1.,6.60010581046542E-15,0.));
#713=DIRECTION('',(-1.,1.72254642419866E-16,-2.10527254163915E-29));
#714=DIRECTION('',(-7.105427357601E-15,1.,-3.10862446895044E-15));
#715=DIRECTION('',(-7.105427357601E-15,1.,-3.10862446895044E-15));
#716=DIRECTION('',(1.,6.60010581046542E-15,0.));
#717=DIRECTION('center_axis',(-1.,-7.105427357601E-15,1.46515822556458E-30));
#718=DIRECTION('ref_axis',(-1.91367246708867E-29,2.89945725423714E-15,1.));
#719=DIRECTION('',(-1.91367246708867E-29,2.89945725423714E-15,1.));
#720=DIRECTION('center_axis',(-1.,-7.105427357601E-15,1.46515822556458E-30));
#721=DIRECTION('ref_axis',(-1.91367246708867E-29,2.89945725423714E-15,1.));
#722=DIRECTION('',(2.37783907415078E-29,-3.5527136788005E-15,-1.));
#723=DIRECTION('center_axis',(-7.105427357601E-15,1.,-3.10862446895044E-15));
#724=DIRECTION('ref_axis',(0.,3.10862446895044E-15,1.));
#725=DIRECTION('',(-1.91367246708867E-29,2.89945725423714E-15,1.));
#726=DIRECTION('',(1.,6.60010581046543E-15,2.66453525910036E-15));
#727=DIRECTION('',(3.55271367880051E-15,-2.89945725423712E-15,-1.));
#728=DIRECTION('',(-1.,-6.60010581046542E-15,-6.30388181033965E-60));
#729=DIRECTION('center_axis',(1.,1.57772181044202E-29,3.55271367880049E-15));
#730=DIRECTION('ref_axis',(-3.55271367880049E-15,6.11971424361951E-31,1.));
#731=DIRECTION('',(-7.105427357601E-15,1.,-3.10862446895044E-15));
#732=DIRECTION('',(0.,-1.,4.44089209850064E-15));
#733=DIRECTION('center_axis',(-4.44089209850059E-16,-4.44089209850064E-15,
-1.));
#734=DIRECTION('ref_axis',(1.,-1.72254642419868E-16,-4.44089209850059E-16));
#735=DIRECTION('',(0.,-1.,4.44089209850064E-15));
#736=DIRECTION('center_axis',(-1.,2.71769906295718E-45,6.11971424361953E-31));
#737=DIRECTION('ref_axis',(-6.11971424361953E-31,-3.5527136788005E-15,-1.));
#738=DIRECTION('',(0.,-1.,4.44089209850064E-15));
#739=DIRECTION('center_axis',(-2.66453525910034E-15,4.44089209850064E-15,
1.));
#740=DIRECTION('ref_axis',(-1.,3.72496832122035E-15,-2.66453525910036E-15));
#741=DIRECTION('center_axis',(-1.72254642419866E-16,-1.,3.5527136788005E-15));
#742=DIRECTION('ref_axis',(1.,-1.72254642419866E-16,0.));
#743=CARTESIAN_POINT('',(0.,0.,0.));
#744=CARTESIAN_POINT('Ctrl Pts',(-60.7499999999998,-65.,8.81652412471719));
#745=CARTESIAN_POINT('Ctrl Pts',(-60.6004003498288,-65.,8.51732482437531));
#746=CARTESIAN_POINT('Ctrl Pts',(-60.3414389631647,-64.7488059324546,7.99940205104707));
#747=CARTESIAN_POINT('Ctrl Pts',(-60.2499999999998,-64.2243994752564,7.81652412471719));
#748=CARTESIAN_POINT('Ctrl Pts',(-60.2499999999998,-64.,7.81652412471719));
#749=CARTESIAN_POINT('Ctrl Pts',(-60.7499999999998,-65.,8.81652412471719));
#750=CARTESIAN_POINT('Ctrl Pts',(-60.5754670748004,-65.,8.5422580994038));
#751=CARTESIAN_POINT('Ctrl Pts',(-60.2694046613123,-64.8083117710525,8.05739980750237));
#752=CARTESIAN_POINT('Ctrl Pts',(-60.1191003061002,-64.2540634657718,7.81652412471719));
#753=CARTESIAN_POINT('Ctrl Pts',(-60.1191003061002,-64.,7.81652412471719));
#754=CARTESIAN_POINT('Ctrl Pts',(-60.7499999999998,-65.,8.81652412471719));
#755=CARTESIAN_POINT('Ctrl Pts',(-60.5256005247433,-65.,8.59212464946078));
#756=CARTESIAN_POINT('Ctrl Pts',(-60.1242193342161,-64.8704250303283,8.19074345893349));
#757=CARTESIAN_POINT('Ctrl Pts',(-59.8584932494578,-64.2877354781588,7.92501737417524));
#758=CARTESIAN_POINT('Ctrl Pts',(-59.8584932494578,-64.,7.92501737417524));
#759=CARTESIAN_POINT('Ctrl Pts',(-60.7499999999998,-65.,8.81652412471719));
#760=CARTESIAN_POINT('Ctrl Pts',(-60.4757339746864,-65.,8.64199119951776));
#761=CARTESIAN_POINT('Ctrl Pts',(-59.990875682785,-64.8083117710525,8.33592878602965));
#762=CARTESIAN_POINT('Ctrl Pts',(-59.7499999999998,-64.2540634657718,8.18562443081762));
#763=CARTESIAN_POINT('Ctrl Pts',(-59.7499999999998,-64.,8.18562443081762));
#764=CARTESIAN_POINT('Ctrl Pts',(-60.7499999999998,-65.,8.81652412471719));
#765=CARTESIAN_POINT('Ctrl Pts',(-60.4508006996579,-65.,8.66692447454626));
#766=CARTESIAN_POINT('Ctrl Pts',(-59.9328779263297,-64.7488059324546,8.40796308788213));
#767=CARTESIAN_POINT('Ctrl Pts',(-59.7499999999998,-64.2243994752564,8.3165241247172));
#768=CARTESIAN_POINT('Ctrl Pts',(-59.7499999999998,-64.,8.31652412471719));
#769=CARTESIAN_POINT('',(-60.2499999999998,-64.,7.81652412471719));
#770=CARTESIAN_POINT('',(-59.7499999999998,-64.,8.31652412471719));
#771=CARTESIAN_POINT('Origin',(-60.2499999999998,-64.,8.31652412471719));
#772=CARTESIAN_POINT('',(-60.7499999999998,-65.,8.81652412471719));
#773=CARTESIAN_POINT('Origin',(-60.7499999999998,-64.,8.81652412471719));
#774=CARTESIAN_POINT('Origin',(-60.7499999999998,-64.,8.81652412471719));
#775=CARTESIAN_POINT('Origin',(-60.2499999999998,-63.,8.31652412471718));
#776=CARTESIAN_POINT('',(-60.2499999999998,-59.,7.81652412471717));
#777=CARTESIAN_POINT('',(-59.7499999999998,-59.,8.31652412471717));
#778=CARTESIAN_POINT('Origin',(-60.2499999999998,-59.,8.31652412471717));
#779=CARTESIAN_POINT('',(-59.7499999999998,-63.,8.31652412471718));
#780=CARTESIAN_POINT('',(-60.2499999999998,-63.,7.81652412471718));
#781=CARTESIAN_POINT('Origin',(-60.7499999999998,-64.,11.4415241247172));
#782=CARTESIAN_POINT('',(-59.7499999999998,-64.,21.8165241247172));
#783=CARTESIAN_POINT('',(-59.7499999999998,-64.,11.4415241247172));
#784=CARTESIAN_POINT('',(-60.7499999999998,-65.,21.3165241247172));
#785=CARTESIAN_POINT('Origin',(-60.7499999999998,-64.,21.3165241247172));
#786=CARTESIAN_POINT('',(-60.7499999999998,-65.,11.4415241247172));
#787=CARTESIAN_POINT('Origin',(-59.7499999999998,-63.,7.81652412471718));
#788=CARTESIAN_POINT('',(-59.7499999999998,-58.9999999999999,21.8165241247172));
#789=CARTESIAN_POINT('',(-59.7499999999998,-59.,11.4415241247172));
#790=CARTESIAN_POINT('',(-59.7499999999998,-62.9999999999999,21.8165241247172));
#791=CARTESIAN_POINT('Origin',(-66.9999999999998,-59.,15.0665241247172));
#792=CARTESIAN_POINT('',(-73.7499999999998,-59.,7.81652412471717));
#793=CARTESIAN_POINT('',(-70.6249999999998,-59.,7.81652412471717));
#794=CARTESIAN_POINT('',(-74.2499999999998,-59.,8.31652412471717));
#795=CARTESIAN_POINT('Origin',(-73.7499999999998,-59.,8.31652412471717));
#796=CARTESIAN_POINT('',(-74.2499999999998,-59.,21.8165241247172));
#797=CARTESIAN_POINT('',(-74.2499999999998,-59.,18.6915241247172));
#798=CARTESIAN_POINT('',(-73.7499999999998,-59.,22.3165241247172));
#799=CARTESIAN_POINT('Origin',(-73.7499999999998,-58.9999999999999,21.8165241247172));
#800=CARTESIAN_POINT('',(-60.2499999999998,-59.,22.3165241247172));
#801=CARTESIAN_POINT('',(-63.3749999999998,-59.,22.3165241247172));
#802=CARTESIAN_POINT('Origin',(-60.2499999999998,-58.9999999999999,21.8165241247172));
#803=CARTESIAN_POINT('',(-64.4999999999998,-59.,12.5665241247172));
#804=CARTESIAN_POINT('',(-64.4999999999994,-59.,17.5665241247172));
#805=CARTESIAN_POINT('',(-64.4999999999998,-59.,13.8165241247172));
#806=CARTESIAN_POINT('',(-69.4999999999998,-59.,17.5665241247172));
#807=CARTESIAN_POINT('',(-65.7499999999998,-59.,17.5665241247172));
#808=CARTESIAN_POINT('',(-69.4999999999998,-59.,12.5665241247172));
#809=CARTESIAN_POINT('',(-69.4999999999998,-59.,16.3165241247172));
#810=CARTESIAN_POINT('',(-68.2499999999998,-59.,12.5665241247172));
#811=CARTESIAN_POINT('Ctrl Pts',(-73.2499999999998,-65.,8.81652412471719));
#812=CARTESIAN_POINT('Ctrl Pts',(-73.5491993003417,-65.,8.66692447454625));
#813=CARTESIAN_POINT('Ctrl Pts',(-74.0671081956965,-64.7487943661175,8.4079700268688));
#814=CARTESIAN_POINT('Ctrl Pts',(-74.2499999999998,-64.2243994752564,8.31652412471719));
#815=CARTESIAN_POINT('Ctrl Pts',(-74.2499999999998,-64.,8.31652412471719));
#816=CARTESIAN_POINT('Ctrl Pts',(-73.2499999999998,-65.,8.81652412471719));
#817=CARTESIAN_POINT('Ctrl Pts',(-73.5242660253132,-65.,8.64199119951776));
#818=CARTESIAN_POINT('Ctrl Pts',(-74.0091043574027,-64.8082676806322,8.33593638928438));
#819=CARTESIAN_POINT('Ctrl Pts',(-74.2499999999998,-64.2540634657718,8.18562443081762));
#820=CARTESIAN_POINT('Ctrl Pts',(-74.2499999999998,-64.,8.18562443081761));
#821=CARTESIAN_POINT('Ctrl Pts',(-73.2499999999998,-65.,8.81652412471719));
#822=CARTESIAN_POINT('Ctrl Pts',(-73.4743994752562,-65.,8.59212464946078));
#823=CARTESIAN_POINT('Ctrl Pts',(-73.8757808482379,-64.8703226873205,8.19074327647908));
#824=CARTESIAN_POINT('Ctrl Pts',(-74.1415019985936,-64.2877354781589,7.9250221261234));
#825=CARTESIAN_POINT('Ctrl Pts',(-74.1415019985936,-64.,7.9250221261234));
#826=CARTESIAN_POINT('Ctrl Pts',(-73.2499999999998,-65.,8.81652412471719));
#827=CARTESIAN_POINT('Ctrl Pts',(-73.4245329251992,-65.,8.5422580994038));
#828=CARTESIAN_POINT('Ctrl Pts',(-73.7305877354326,-64.8082676806322,8.05741976731428));
#829=CARTESIAN_POINT('Ctrl Pts',(-73.8808996938994,-64.2540634657718,7.81652412471719));
#830=CARTESIAN_POINT('Ctrl Pts',(-73.8808996938994,-64.,7.81652412471719));
#831=CARTESIAN_POINT('Ctrl Pts',(-73.2499999999998,-65.,8.81652412471719));
#832=CARTESIAN_POINT('Ctrl Pts',(-73.3995996501707,-65.,8.51732482437531));
#833=CARTESIAN_POINT('Ctrl Pts',(-73.6585540978482,-64.7487943661175,7.99941592902042));
#834=CARTESIAN_POINT('Ctrl Pts',(-73.7499999999998,-64.2243994752564,7.81652412471719));
#835=CARTESIAN_POINT('Ctrl Pts',(-73.7499999999998,-64.,7.81652412471719));
#836=CARTESIAN_POINT('',(-74.2499999999998,-64.,8.31652412471719));
#837=CARTESIAN_POINT('',(-73.7499999999998,-64.,7.81652412471719));
#838=CARTESIAN_POINT('Origin',(-73.7499999999998,-64.,8.31652412471719));
#839=CARTESIAN_POINT('',(-73.2499999999998,-65.,8.81652412471719));
#840=CARTESIAN_POINT('Origin',(-73.2499999999998,-64.,8.81652412471719));
#841=CARTESIAN_POINT('Origin',(-73.2499999999998,-64.,8.81652412471719));
#842=CARTESIAN_POINT('Origin',(-73.7499999999998,-63.,8.31652412471718));
#843=CARTESIAN_POINT('',(-73.7499999999998,-63.,7.81652412471718));
#844=CARTESIAN_POINT('',(-74.2499999999998,-63.,8.31652412471718));
#845=CARTESIAN_POINT('Origin',(-74.2499999999998,-63.,22.3165241247172));
#846=CARTESIAN_POINT('',(-74.2499999999998,-64.,21.8165241247172));
#847=CARTESIAN_POINT('',(-74.2499999999998,-64.,18.6915241247172));
#848=CARTESIAN_POINT('',(-74.2499999999998,-63.,21.8165241247172));
#849=CARTESIAN_POINT('Origin',(-73.2499999999998,-64.,18.6915241247172));
#850=CARTESIAN_POINT('',(-73.2499999999998,-65.,21.3165241247172));
#851=CARTESIAN_POINT('',(-73.2499999999998,-65.,18.6915241247172));
#852=CARTESIAN_POINT('Origin',(-73.2499999999998,-64.,21.3165241247172));
#853=CARTESIAN_POINT('Ctrl Pts',(-73.2499999999998,-65.,21.3165241247172));
#854=CARTESIAN_POINT('Ctrl Pts',(-73.362199737628,-65.,21.5409235999736));
#855=CARTESIAN_POINT('Ctrl Pts',(-73.5485071289799,-64.868824717506,21.9135383826774));
#856=CARTESIAN_POINT('Ctrl Pts',(-73.7157790848854,-64.4482446758602,22.2480822944885));
#857=CARTESIAN_POINT('Ctrl Pts',(-73.7499999999998,-64.1495996501709,22.3165241247172));
#858=CARTESIAN_POINT('Ctrl Pts',(-73.7499999999998,-64.,22.3165241247172));
#859=CARTESIAN_POINT('Ctrl Pts',(-73.2499999999998,-65.,21.3165241247172));
#860=CARTESIAN_POINT('Ctrl Pts',(-73.3808996938994,-65.,21.5222236437022));
#861=CARTESIAN_POINT('Ctrl Pts',(-73.5980787224066,-64.8950699502365,21.8642891696981));
#862=CARTESIAN_POINT('Ctrl Pts',(-73.8235351565878,-64.5022095311905,22.225952099979));
#863=CARTESIAN_POINT('Ctrl Pts',(-73.8808996938994,-64.1693756438478,22.3165241247172));
#864=CARTESIAN_POINT('Ctrl Pts',(-73.8808996938994,-64.,22.3165241247172));
#865=CARTESIAN_POINT('Ctrl Pts',(-73.2499999999998,-65.,21.3165241247172));
#866=CARTESIAN_POINT('Ctrl Pts',(-73.4182996064421,-65.,21.4848237311595));
#867=CARTESIAN_POINT('Ctrl Pts',(-73.6979955098396,-64.9207148157527,21.764519634557));
#868=CARTESIAN_POINT('Ctrl Pts',(-74.0388552271929,-64.5619995990232,22.1053793519104));
#869=CARTESIAN_POINT('Ctrl Pts',(-74.1414977028791,-64.1918236521058,22.2080218275965));
#870=CARTESIAN_POINT('Ctrl Pts',(-74.1414977028791,-64.,22.2080218275965));
#871=CARTESIAN_POINT('Ctrl Pts',(-73.2499999999998,-65.,21.3165241247172));
#872=CARTESIAN_POINT('Ctrl Pts',(-73.4556995189848,-65.,21.4474238186168));
#873=CARTESIAN_POINT('Ctrl Pts',(-73.7977650449807,-64.8950699502365,21.664602847124));
#874=CARTESIAN_POINT('Ctrl Pts',(-74.1594279752616,-64.5022095311905,21.8900592813052));
#875=CARTESIAN_POINT('Ctrl Pts',(-74.2499999999998,-64.1693756438478,21.9474238186168));
#876=CARTESIAN_POINT('Ctrl Pts',(-74.2499999999998,-64.,21.9474238186168));
#877=CARTESIAN_POINT('Ctrl Pts',(-73.2499999999998,-65.,21.3165241247172));
#878=CARTESIAN_POINT('Ctrl Pts',(-73.4743994752562,-65.,21.4287238623454));
#879=CARTESIAN_POINT('Ctrl Pts',(-73.84701425796,-64.868824717506,21.6150312536973));
#880=CARTESIAN_POINT('Ctrl Pts',(-74.1815581697711,-64.4482446758602,21.7823032096028));
#881=CARTESIAN_POINT('Ctrl Pts',(-74.2499999999998,-64.1495996501709,21.8165241247172));
#882=CARTESIAN_POINT('Ctrl Pts',(-74.2499999999998,-64.,21.8165241247172));
#883=CARTESIAN_POINT('',(-73.7499999999998,-64.,22.3165241247172));
#884=CARTESIAN_POINT('Origin',(-73.7499999999998,-64.,21.8165241247172));
#885=CARTESIAN_POINT('Origin',(-73.2499999999998,-64.,21.3165241247172));
#886=CARTESIAN_POINT('Origin',(-73.7499999999998,-63.,21.8165241247172));
#887=CARTESIAN_POINT('',(-73.7499999999998,-63.,22.3165241247172));
#888=CARTESIAN_POINT('Ctrl Pts',(-60.7499999999998,-65.,21.3165241247172));
#889=CARTESIAN_POINT('Ctrl Pts',(-60.5256005247434,-65.,21.4287238623454));
#890=CARTESIAN_POINT('Ctrl Pts',(-60.1529830269112,-64.8688312001847,21.6150326112615));
#891=CARTESIAN_POINT('Ctrl Pts',(-59.818439882008,-64.4482477873069,21.7823041837131));
#892=CARTESIAN_POINT('Ctrl Pts',(-59.7499999999998,-64.1495996501709,21.8165241247172));
#893=CARTESIAN_POINT('Ctrl Pts',(-59.7499999999998,-64.,21.8165241247172));
#894=CARTESIAN_POINT('Ctrl Pts',(-60.7499999999998,-65.,21.3165241247172));
#895=CARTESIAN_POINT('Ctrl Pts',(-60.5443004810147,-65.,21.4474238186168));
#896=CARTESIAN_POINT('Ctrl Pts',(-60.2022216818027,-64.8950733401397,21.6646096608961));
#897=CARTESIAN_POINT('Ctrl Pts',(-59.8405618504476,-64.5022127330448,21.8900648553773));
#898=CARTESIAN_POINT('Ctrl Pts',(-59.7499999999998,-64.1693756438478,21.9474238186168));
#899=CARTESIAN_POINT('Ctrl Pts',(-59.7499999999998,-64.,21.9474238186168));
#900=CARTESIAN_POINT('Ctrl Pts',(-60.7499999999998,-65.,21.3165241247172));
#901=CARTESIAN_POINT('Ctrl Pts',(-60.5817003935575,-65.,21.4848237311595));
#902=CARTESIAN_POINT('Ctrl Pts',(-60.3019927696505,-64.9207237826744,21.7645313550665));
#903=CARTESIAN_POINT('Ctrl Pts',(-59.9611322681984,-64.5620151467297,22.1053918565186));
#904=CARTESIAN_POINT('Ctrl Pts',(-59.858498001406,-64.1918236521058,22.208026123311));
#905=CARTESIAN_POINT('Ctrl Pts',(-59.858498001406,-64.,22.208026123311));
#906=CARTESIAN_POINT('Ctrl Pts',(-60.7499999999998,-65.,21.3165241247172));
#907=CARTESIAN_POINT('Ctrl Pts',(-60.6191003061002,-65.,21.5222236437022));
#908=CARTESIAN_POINT('Ctrl Pts',(-60.4019144638208,-64.8950733401397,21.8643024429142));
#909=CARTESIAN_POINT('Ctrl Pts',(-60.1764592693397,-64.5022127330448,22.2259622742694));
#910=CARTESIAN_POINT('Ctrl Pts',(-60.1191003061002,-64.1693756438478,22.3165241247172));
#911=CARTESIAN_POINT('Ctrl Pts',(-60.1191003061002,-64.,22.3165241247172));
#912=CARTESIAN_POINT('Ctrl Pts',(-60.7499999999998,-65.,21.3165241247172));
#913=CARTESIAN_POINT('Ctrl Pts',(-60.6378002623716,-65.,21.5409235999736));
#914=CARTESIAN_POINT('Ctrl Pts',(-60.4514915134555,-64.8688312001847,21.9135410978058));
#915=CARTESIAN_POINT('Ctrl Pts',(-60.2842199410039,-64.4482477873069,22.248084242709));
#916=CARTESIAN_POINT('Ctrl Pts',(-60.2499999999998,-64.1495996501709,22.3165241247172));
#917=CARTESIAN_POINT('Ctrl Pts',(-60.2499999999998,-64.,22.3165241247172));
#918=CARTESIAN_POINT('',(-60.2499999999998,-64.,22.3165241247172));
#919=CARTESIAN_POINT('Origin',(-60.2499999999998,-64.,21.8165241247172));
#920=CARTESIAN_POINT('Origin',(-60.7499999999998,-64.,21.3165241247172));
#921=CARTESIAN_POINT('Origin',(-60.2499999999998,-62.9999999999999,21.8165241247172));
#922=CARTESIAN_POINT('',(-60.2499999999998,-62.9999999999999,22.3165241247172));
#923=CARTESIAN_POINT('Origin',(-63.3749999999998,-64.,21.3165241247172));
#924=CARTESIAN_POINT('',(-63.3749999999998,-65.,21.3165241247172));
#925=CARTESIAN_POINT('',(-63.3749999999998,-64.,22.3165241247172));
#926=CARTESIAN_POINT('Origin',(-70.6249999999998,-64.,8.81652412471719));
#927=CARTESIAN_POINT('',(-70.6249999999998,-65.,8.81652412471719));
#928=CARTESIAN_POINT('',(-70.6249999999998,-64.,7.81652412471719));
#929=CARTESIAN_POINT('Origin',(-74.2499999999998,-63.,7.81652412471718));
#930=CARTESIAN_POINT('Origin',(-66.9999999999998,-65.,15.0665241247172));
#931=CARTESIAN_POINT('Origin',(-59.7499999999998,-63.,22.3165241247172));
#932=CARTESIAN_POINT('Origin',(-69.7392304845416,-58.95,16.7665241247172));
#933=CARTESIAN_POINT('',(-68.7000000000003,-59.55,16.7665241247172));
#934=CARTESIAN_POINT('',(-68.7000000000003,-58.35,16.7665241247172));
#935=CARTESIAN_POINT('Origin',(-69.7392304845416,-58.95,16.7665241247172));
#936=CARTESIAN_POINT('',(-68.7000000000003,-59.55,13.3665241247172));
#937=CARTESIAN_POINT('',(-68.6999999999994,-59.5499999999984,16.7665241247172));
#938=CARTESIAN_POINT('',(-68.7000000000003,-58.35,13.3665241247172));
#939=CARTESIAN_POINT('Origin',(-69.7392304845416,-58.95,13.3665241247172));
#940=CARTESIAN_POINT('',(-68.6999999999994,-58.3500000000015,16.7665241247172));
#941=CARTESIAN_POINT('Origin',(-68.6999999999994,-62.0000000000004,16.7665241247172));
#942=CARTESIAN_POINT('',(-68.6999999999994,-57.0000000000005,13.3665241247172));
#943=CARTESIAN_POINT('',(-68.6999999999994,-62.0000000000005,13.3665241247172));
#944=CARTESIAN_POINT('',(-68.6999999999994,-57.0000000000004,16.7665241247172));
#945=CARTESIAN_POINT('',(-68.6999999999994,-57.0000000000004,16.7665241247172));
#946=CARTESIAN_POINT('',(-68.6999999999994,-62.0000000000004,16.7665241247172));
#947=CARTESIAN_POINT('Origin',(-68.6999999999994,-62.0000000000004,16.7665241247172));
#948=CARTESIAN_POINT('',(-68.6999999999994,-62.0000000000004,16.7665241247172));
#949=CARTESIAN_POINT('',(-68.6999999999994,-62.0000000000004,16.7665241247172));
#950=CARTESIAN_POINT('',(-68.6999999999994,-62.0000000000005,13.3665241247172));
#951=CARTESIAN_POINT('',(-68.6999999999994,-62.,15.9165241247172));
#952=CARTESIAN_POINT('',(-68.6999999999994,-62.0000000000005,13.3665241247172));
#953=CARTESIAN_POINT('Origin',(-65.2999999999994,-62.0000000000004,16.7665241247172));
#954=CARTESIAN_POINT('',(-65.2999999999994,-57.0000000000004,16.7665241247172));
#955=CARTESIAN_POINT('',(-65.2999999999994,-57.0000000000004,16.7665241247172));
#956=CARTESIAN_POINT('',(-65.2999999999993,-58.35,16.7665241247172));
#957=CARTESIAN_POINT('',(-65.2999999999994,-62.0000000000004,16.7665241247172));
#958=CARTESIAN_POINT('',(-65.2999999999993,-59.55,16.7665241247172));
#959=CARTESIAN_POINT('Origin',(-64.260769515458,-58.95,16.7665241247172));
#960=CARTESIAN_POINT('',(-65.2999999999994,-62.0000000000004,16.7665241247172));
#961=CARTESIAN_POINT('',(-65.2999999999994,-62.0000000000004,16.7665241247172));
#962=CARTESIAN_POINT('',(-66.1499999999996,-62.,16.7665241247172));
#963=CARTESIAN_POINT('Origin',(-64.260769515458,-58.95,16.7665241247172));
#964=CARTESIAN_POINT('',(-65.2999999999993,-58.35,13.3665241247172));
#965=CARTESIAN_POINT('',(-65.2999999999994,-58.3500000000002,16.7665241247172));
#966=CARTESIAN_POINT('',(-65.2999999999993,-59.55,13.3665241247172));
#967=CARTESIAN_POINT('Origin',(-64.260769515458,-58.95,13.3665241247172));
#968=CARTESIAN_POINT('',(-65.2999999999994,-59.5499999999998,16.7665241247172));
#969=CARTESIAN_POINT('Origin',(-68.6999999999994,-62.0000000000005,13.3665241247172));
#970=CARTESIAN_POINT('',(-65.2999999999994,-62.0000000000004,13.3665241247172));
#971=CARTESIAN_POINT('',(-67.8499999999996,-62.,13.3665241247172));
#972=CARTESIAN_POINT('',(-65.2999999999994,-62.0000000000004,13.3665241247172));
#973=CARTESIAN_POINT('',(-65.2999999999994,-57.0000000000004,13.3665241247172));
#974=CARTESIAN_POINT('',(-65.2999999999994,-62.0000000000004,13.3665241247172));
#975=CARTESIAN_POINT('',(-68.6999999999994,-57.0000000000005,13.3665241247172));
#976=CARTESIAN_POINT('Origin',(-65.2999999999994,-62.0000000000004,13.3665241247172));
#977=CARTESIAN_POINT('',(-65.2999999999994,-57.0000000000004,13.3665241247172));
#978=CARTESIAN_POINT('Origin',(-65.2999999999994,-62.0000000000004,13.3665241247172));
#979=CARTESIAN_POINT('',(-65.2999999999994,-62.,14.2165241247172));
#980=CARTESIAN_POINT('Origin',(-66.9999999999994,-57.0000000000004,15.0665241247172));
#981=CARTESIAN_POINT('',(-69.4999999999994,-57.0000000000005,12.5665241247172));
#982=CARTESIAN_POINT('',(-69.4999999999994,-57.0000000000004,17.5665241247172));
#983=CARTESIAN_POINT('',(-69.4999999999994,-57.0000000000005,12.5665241247172));
#984=CARTESIAN_POINT('',(-64.4999999999994,-57.0000000000004,17.5665241247172));
#985=CARTESIAN_POINT('',(-69.4999999999994,-57.0000000000004,17.5665241247172));
#986=CARTESIAN_POINT('',(-64.4999999999994,-57.0000000000004,12.5665241247172));
#987=CARTESIAN_POINT('',(-64.4999999999994,-57.0000000000004,17.5665241247172));
#988=CARTESIAN_POINT('',(-64.4999999999994,-57.0000000000004,12.5665241247172));
#989=CARTESIAN_POINT('Origin',(-64.4999999999998,-62.,12.5665241247172));
#990=CARTESIAN_POINT('',(-64.4999999999994,-62.0000000000004,17.5665241247172));
#991=CARTESIAN_POINT('',(-64.4999999999998,-62.,12.5665241247172));
#992=CARTESIAN_POINT('Origin',(-69.4999999999998,-62.,12.5665241247172));
#993=CARTESIAN_POINT('',(-69.4999999999998,-62.,12.5665241247172));
#994=CARTESIAN_POINT('Origin',(-69.4999999999998,-62.,17.5665241247172));
#995=CARTESIAN_POINT('',(-69.4999999999998,-62.,17.5665241247172));
#996=CARTESIAN_POINT('Origin',(-64.4999999999998,-62.,17.5665241247172));
#997=CARTESIAN_POINT('Origin',(-66.9999999999998,-62.,15.0665241247172));
#998=UNCERTAINTY_MEASURE_WITH_UNIT(LENGTH_MEASURE(0.01),#1002,
'DISTANCE_ACCURACY_VALUE',
'Maximum model space distance between geometric entities at asserted c
onnectivities');
#999=UNCERTAINTY_MEASURE_WITH_UNIT(LENGTH_MEASURE(0.01),#1002,
'DISTANCE_ACCURACY_VALUE',
'Maximum model space distance between geometric entities at asserted c
onnectivities');
#1000=(
GEOMETRIC_REPRESENTATION_CONTEXT(3)
GLOBAL_UNCERTAINTY_ASSIGNED_CONTEXT((#998))
GLOBAL_UNIT_ASSIGNED_CONTEXT((#1002,#1004,#1005))
REPRESENTATION_CONTEXT('','3D')
);
#1001=(
GEOMETRIC_REPRESENTATION_CONTEXT(3)
GLOBAL_UNCERTAINTY_ASSIGNED_CONTEXT((#999))
GLOBAL_UNIT_ASSIGNED_CONTEXT((#1002,#1004,#1005))
REPRESENTATION_CONTEXT('','3D')
);
#1002=(
LENGTH_UNIT()
NAMED_UNIT(*)
SI_UNIT(.MILLI.,.METRE.)
);
#1003=(
LENGTH_UNIT()
NAMED_UNIT(*)
SI_UNIT($,.METRE.)
);
#1004=(
NAMED_UNIT(*)
PLANE_ANGLE_UNIT()
SI_UNIT($,.RADIAN.)
);
#1005=(
NAMED_UNIT(*)
SI_UNIT($,.STERADIAN.)
SOLID_ANGLE_UNIT()
);
#1006=SHAPE_DEFINITION_REPRESENTATION(#1007,#1008);
#1007=PRODUCT_DEFINITION_SHAPE('',$,#1010);
#1008=SHAPE_REPRESENTATION('',(#544),#1000);
#1009=PRODUCT_DEFINITION_CONTEXT('part definition',#1014,'design');
#1010=PRODUCT_DEFINITION('Button Cap','Button Cap',#1011,#1009);
#1011=PRODUCT_DEFINITION_FORMATION('',$,#1016);
#1012=PRODUCT_RELATED_PRODUCT_CATEGORY('Button Cap','Button Cap',(#1016));
#1013=APPLICATION_PROTOCOL_DEFINITION('international standard',
'automotive_design',2009,#1014);
#1014=APPLICATION_CONTEXT(
'Core Data for Automotive Mechanical Design Process');
#1015=PRODUCT_CONTEXT('part definition',#1014,'mechanical');
#1016=PRODUCT('Button Cap','Button Cap',$,(#1015));
#1017=PRESENTATION_STYLE_ASSIGNMENT((#1019));
#1018=PRESENTATION_STYLE_ASSIGNMENT((#1020));
#1019=SURFACE_STYLE_USAGE(.BOTH.,#1021);
#1020=SURFACE_STYLE_USAGE(.BOTH.,#1022);
#1021=SURFACE_SIDE_STYLE('',(#1023));
#1022=SURFACE_SIDE_STYLE('',(#1024));
#1023=SURFACE_STYLE_FILL_AREA(#1025);
#1024=SURFACE_STYLE_FILL_AREA(#1026);
#1025=FILL_AREA_STYLE('Steel - Satin',(#1027));
#1026=FILL_AREA_STYLE('Plastic - Matte (White)',(#1028));
#1027=FILL_AREA_STYLE_COLOUR('Steel - Satin',#1029);
#1028=FILL_AREA_STYLE_COLOUR('Plastic - Matte (White)',#1030);
#1029=COLOUR_RGB('Steel - Satin',0.627450980392157,0.627450980392157,0.627450980392157);
#1030=COLOUR_RGB('Plastic - Matte (White)',0.964705882352941,0.964705882352941,
0.952941176470588);
ENDSEC;
END-ISO-10303-21;
